<?xml version="1.0" standalone="no"?>
<!DOCTYPE svg PUBLIC "-//W3C//DTD SVG 20010904//EN"
 "http://www.w3.org/TR/2001/REC-SVG-20010904/DTD/svg10.dtd">
<svg version="1.0" xmlns="http://www.w3.org/2000/svg"
 width="1510.000000pt" height="512.000000pt" viewBox="0 0 1510.000000 512.000000"
 preserveAspectRatio="xMidYMid meet">

<g transform="translate(0.000000,512.000000) scale(0.100000,-0.100000)"
fill="#000000" stroke="none">
<path d="M2342 4888 c-38 -111 -54 -156 -66 -183 -8 -16 -18 -43 -22 -60 -4
-16 -13 -39 -20 -50 -19 -27 -17 -35 6 -35 18 0 35 27 54 83 4 14 18 17 79 17
82 0 90 -5 104 -60 7 -25 15 -36 32 -38 26 -4 24 7 -9 83 -10 22 -23 58 -30
80 -7 22 -16 45 -20 50 -4 6 -10 23 -14 38 -25 104 -71 140 -94 75z m48 -45
c0 -10 7 -31 15 -46 8 -15 17 -43 21 -62 l6 -35 -61 0 c-55 0 -76 10 -52 24 4
3 14 27 21 53 16 59 28 83 40 83 6 0 10 -8 10 -17z"/>
<path d="M3210 4741 l0 -181 63 0 c81 0 97 6 127 42 36 46 33 94 -9 129 l-33
27 21 21 c25 25 28 87 7 116 -12 16 -29 20 -95 23 l-81 4 0 -181z m138 127 c7
-7 12 -27 12 -45 0 -38 -21 -53 -74 -53 l-36 0 0 55 0 55 43 0 c24 0 48 -5 55
-12z m10 -155 c31 -28 35 -56 11 -86 -17 -23 -28 -27 -70 -27 l-49 0 0 65 0
65 44 0 c27 0 51 -7 64 -17z"/>
<path d="M4133 4903 c-3 -10 -14 -37 -24 -60 -11 -23 -19 -46 -19 -50 0 -4 -7
-21 -15 -36 -8 -16 -21 -50 -29 -75 -8 -26 -21 -64 -30 -84 -16 -38 -16 -38 8
-38 19 0 26 7 31 32 14 62 23 68 103 68 l74 0 21 -50 c14 -34 27 -50 39 -50
10 0 18 4 18 10 0 5 -20 58 -43 117 -24 59 -54 136 -67 171 -17 46 -27 62 -42
62 -10 0 -21 -8 -25 -17z m42 -75 c4 -18 16 -52 26 -75 11 -23 19 -44 19 -47
0 -4 -27 -6 -60 -6 -53 0 -60 2 -60 19 0 11 4 22 8 25 5 3 15 30 22 61 15 62
35 72 45 23z"/>
<path d="M5000 4740 l0 -180 70 0 c63 0 72 3 105 31 29 26 35 38 35 70 0 40
-24 79 -47 79 -18 0 -17 27 1 33 18 7 29 59 21 96 -8 37 -40 51 -120 51 l-65
0 0 -180z m138 128 c14 -14 16 -57 3 -77 -5 -7 -29 -16 -55 -18 l-46 -6 0 57
0 56 43 0 c24 0 48 -5 55 -12z m10 -157 c52 -44 13 -111 -65 -111 l-43 0 0 65
0 65 43 0 c26 -1 50 -8 65 -19z"/>
<path d="M5884 4893 c-4 -16 -22 -66 -41 -113 -19 -47 -42 -107 -50 -135 -8
-27 -19 -54 -24 -59 -15 -17 -10 -28 12 -24 15 2 27 17 39 48 l18 45 79 3 79
3 15 -48 c11 -35 21 -49 36 -51 21 -3 21 -2 8 40 -8 24 -28 79 -45 123 -17 44
-38 100 -47 125 -20 56 -30 70 -54 70 -12 0 -21 -10 -25 -27z m60 -97 c36 -95
36 -96 -29 -96 -30 0 -55 4 -55 8 0 23 50 165 56 159 1 -1 14 -33 28 -71z"/>
<path d="M6740 4739 l0 -181 80 4 c69 3 83 6 105 29 14 14 28 42 32 62 5 34 2
41 -33 73 -33 32 -36 37 -20 46 24 13 38 56 31 90 -9 40 -50 58 -130 58 l-65
0 0 -181z m145 125 c19 -20 13 -62 -12 -81 -9 -7 -34 -13 -55 -13 l-38 0 0 55
0 55 44 0 c28 0 51 -6 61 -16z m9 -155 c55 -43 16 -109 -66 -109 l-48 0 0 65
0 65 44 0 c29 0 52 -7 70 -21z"/>
<path d="M7689 4883 c-42 -102 -69 -174 -69 -184 0 -5 -8 -29 -19 -52 -35 -78
-36 -89 -10 -85 18 2 26 13 37 51 l13 47 78 0 77 0 22 -50 c16 -36 28 -50 42
-50 18 0 18 2 -6 68 -13 37 -29 76 -34 87 -18 39 -59 150 -66 178 -10 42 -46
37 -65 -10z m69 -106 c12 -37 22 -70 22 -72 0 -3 -27 -5 -60 -5 l-60 0 6 27
c4 15 13 38 20 52 8 14 17 41 20 59 9 46 24 27 52 -61z"/>
<path d="M8530 4739 l0 -181 80 4 c69 3 83 6 105 29 14 14 28 42 32 62 5 33 2
41 -31 71 -40 38 -43 46 -21 46 21 0 39 68 26 103 -14 35 -46 47 -127 47 l-64
0 0 -181z m145 125 c11 -12 14 -25 10 -43 -10 -41 -24 -51 -71 -51 l-44 0 0
55 0 55 44 0 c28 0 51 -6 61 -16z m9 -155 c56 -44 18 -109 -66 -109 l-48 0 0
65 0 65 44 0 c29 0 52 -7 70 -21z"/>
<path d="M9503 4903 c-3 -10 -17 -44 -29 -75 -13 -32 -24 -63 -24 -70 0 -7 -9
-30 -20 -51 -11 -20 -20 -43 -20 -49 0 -7 -6 -24 -13 -38 -27 -52 -28 -60 -4
-60 22 0 35 20 52 78 6 22 11 23 87 20 l81 -3 14 -47 c11 -37 18 -48 34 -48
18 0 20 4 14 27 -3 15 -15 45 -25 68 -10 22 -23 59 -29 82 -6 23 -15 45 -20
47 -5 3 -12 18 -16 33 -14 58 -39 103 -57 103 -10 0 -21 -8 -25 -17z m42 -75
c4 -18 13 -44 20 -58 7 -14 16 -35 19 -47 7 -22 5 -23 -53 -23 -34 0 -61 2
-61 5 0 5 25 84 45 143 8 22 23 12 30 -20z"/>
<path d="M10320 4740 l0 -180 70 0 c63 0 72 3 105 31 29 26 35 38 35 70 0 40
-24 79 -47 79 -18 0 -17 27 1 33 18 7 29 59 21 96 -8 37 -40 51 -120 51 l-65
0 0 -180z m138 128 c14 -14 16 -57 3 -77 -5 -7 -29 -16 -55 -18 l-46 -6 0 57
0 56 43 0 c24 0 48 -5 55 -12z m10 -157 c52 -44 13 -111 -65 -111 l-43 0 0 65
0 65 43 0 c26 -1 50 -8 65 -19z"/>
<path d="M1920 3875 l0 -595 455 0 455 0 0 -580 0 -580 -455 0 -455 0 0 -215
0 -215 40 0 40 0 0 165 0 165 845 0 845 0 0 -166 0 -165 38 3 37 3 3 163 2
162 848 -2 847 -3 3 -163 2 -162 35 0 35 0 0 165 0 165 850 0 850 0 0 -165 0
-165 40 0 40 0 0 165 0 165 850 0 850 0 0 -165 0 -165 40 0 40 0 0 165 0 165
843 -2 842 -3 3 -163 2 -162 35 0 35 0 0 165 0 165 850 0 850 0 0 -165 0 -165
40 0 40 0 0 165 0 165 850 0 850 0 0 -165 0 -165 40 0 40 0 0 209 0 208 -37 7
c-21 3 -1227 6 -2680 6 l-2643 0 0 580 0 580 455 0 455 0 0 595 0 595 -455 0
-455 0 0 -595 0 -595 -440 0 -440 0 0 595 0 595 -455 0 -455 0 0 -595 0 -595
-435 0 -435 0 0 595 0 595 -455 0 -455 0 0 -595 0 -595 -440 0 -440 0 0 595 0
595 -455 0 -455 0 0 -595 0 -595 -435 0 -435 0 0 595 0 595 -455 0 -455 0 0
-595z m2690 -1175 l0 -580 -435 0 -435 0 0 580 0 580 435 0 435 0 0 -580z
m1780 0 l0 -580 -435 0 -435 0 0 580 0 580 435 0 435 0 0 -580z m1760 0 l0
-580 -425 0 -425 0 0 580 0 580 425 0 425 0 0 -580z"/>
<path d="M740 4092 c-93 -47 -130 -136 -100 -241 14 -49 72 -99 124 -106 51
-8 106 5 120 27 14 23 -1 35 -24 20 -59 -36 -160 7 -181 77 -24 81 3 147 78
189 27 14 89 16 98 2 9 -15 35 -12 35 4 0 21 -45 46 -82 46 -18 -1 -49 -9 -68
-18z"/>
<path d="M960 3924 c0 -171 1 -185 18 -182 14 3 18 17 22 73 l5 70 50 6 c28 3
58 9 68 14 37 16 56 84 41 143 -10 35 -72 62 -144 62 l-60 0 0 -186z m148 126
c14 -14 22 -33 22 -55 0 -42 -28 -64 -86 -68 l-39 -2 -3 73 -3 72 44 0 c30 0
50 -6 65 -20z"/>
<path d="M1240 3968 c1 -156 6 -176 56 -209 63 -41 152 -14 184 57 17 35 20
65 20 168 0 118 -1 126 -19 126 -18 0 -20 -10 -23 -141 -3 -140 -3 -141 -31
-165 -34 -29 -82 -31 -117 -4 -24 18 -25 24 -30 162 -4 126 -7 143 -22 146
-17 3 -18 -9 -18 -140z"/>
<path d="M690 2700 c0 -198 2 -230 15 -230 13 0 15 32 15 230 0 198 -2 230
-15 230 -13 0 -15 -32 -15 -230z"/>
<path d="M380 2740 l0 -150 125 0 c118 0 125 1 125 20 0 19 -7 20 -105 20
l-105 0 0 110 0 110 96 0 c86 0 95 2 92 18 -3 15 -18 17 -116 20 l-112 3 0
-151z"/>
<path d="M1020 2856 c0 -28 -8 -42 -46 -75 -26 -23 -64 -46 -85 -53 -42 -12
-44 -15 -30 -37 8 -12 14 -13 38 -2 50 22 123 75 129 95 5 16 10 14 43 -17 20
-20 58 -47 85 -61 47 -25 50 -25 68 -9 19 17 19 18 -12 26 -73 19 -138 77
-146 129 -5 28 -11 38 -25 38 -15 0 -19 -7 -19 -34z"/>
<path d="M1370 2875 c0 -12 24 -15 133 -17 l132 -3 3 -49 c2 -32 -1 -52 -10
-57 -7 -5 -73 -9 -145 -9 -112 0 -133 -2 -133 -15 0 -13 21 -15 133 -15 72 0
137 -4 144 -8 8 -5 10 -25 6 -65 l-6 -57 -156 -2 c-139 -3 -156 -5 -159 -20
-3 -17 12 -18 212 -18 209 0 216 1 216 20 0 16 -7 20 -35 20 l-35 0 0 155 0
155 -150 0 c-125 0 -150 -2 -150 -15z"/>
<path d="M820 2560 c0 -19 6 -20 221 -20 205 0 220 1 217 18 -3 15 -23 17
-221 20 -212 2 -217 2 -217 -18z"/>
<path d="M1895 1523 c-14 -16 -30 -44 -35 -63 -13 -45 -13 -145 0 -189 19 -67
82 -98 144 -70 80 37 89 281 13 334 -36 25 -92 19 -122 -12z m116 -45 c18 -25
23 -45 23 -107 1 -64 -3 -81 -22 -109 -26 -36 -69 -44 -96 -17 -34 35 -36 207
-2 244 29 32 70 27 97 -11z"/>
<path d="M3540 1537 c-14 -7 -26 -22 -28 -35 -3 -21 -2 -21 25 -7 51 27 108
16 118 -22 10 -43 -12 -85 -65 -123 -57 -40 -100 -98 -100 -135 l0 -25 105 0
c98 0 105 1 105 20 0 18 -7 20 -85 20 -100 0 -108 11 -44 62 115 92 122 101
123 157 1 46 -3 56 -27 77 -32 27 -86 32 -127 11z"/>
<path d="M3800 1522 c-74 -74 -62 -285 18 -321 40 -19 80 -13 112 17 61 55 64
249 4 308 -34 35 -96 33 -134 -4z m100 -22 c25 -13 40 -62 40 -132 0 -74 -20
-125 -54 -134 -63 -15 -96 29 -96 131 0 113 46 169 110 135z"/>
<path d="M5380 1504 c-24 -46 -54 -89 -110 -154 -51 -60 -43 -70 55 -70 l85 0
0 -45 c0 -33 4 -45 14 -45 10 0 16 14 18 43 2 35 7 43 26 45 33 5 30 42 -4 42
l-25 0 3 115 c3 109 2 115 -17 115 -14 0 -28 -15 -45 -46z m27 -181 c-3 -2
-31 -3 -62 -1 l-58 3 32 34 c17 18 31 35 31 38 0 2 12 21 28 40 l27 37 3 -73
c2 -41 1 -75 -1 -78z"/>
<path d="M5598 1542 c-9 -4 -27 -20 -40 -37 -21 -27 -23 -40 -23 -135 0 -94 2
-108 23 -137 41 -57 120 -57 162 -1 20 27 25 48 28 119 5 100 -8 149 -45 179
-25 20 -72 25 -105 12z m88 -46 c17 -13 19 -27 19 -126 0 -99 -2 -113 -19
-126 -25 -18 -67 -18 -92 0 -16 12 -20 29 -22 113 -3 88 -2 101 18 126 24 30
64 36 96 13z"/>
<path d="M7127 1542 c-33 -14 -74 -88 -81 -146 -14 -106 19 -190 79 -202 83
-15 135 29 135 115 0 43 -4 53 -31 75 -39 33 -90 35 -119 4 -27 -30 -33 -19
-19 36 15 62 49 89 107 84 38 -3 42 -1 40 17 -2 16 -11 20 -48 22 -25 1 -53
-1 -63 -5z m75 -189 c37 -43 27 -108 -19 -119 -28 -7 -75 3 -85 19 -10 15 -10
79 0 93 18 27 82 31 104 7z"/>
<path d="M7351 1524 c-73 -67 -62 -295 15 -324 34 -13 68 -13 98 2 52 23 82
167 55 257 -18 61 -40 82 -91 88 -39 5 -49 2 -77 -23z m120 -46 c17 -28 20
-46 17 -120 -3 -67 -8 -92 -23 -108 -20 -22 -55 -26 -85 -10 -50 27 -52 219
-2 258 30 23 71 15 93 -20z"/>
<path d="M8880 1543 c-47 -17 -66 -101 -32 -143 18 -22 18 -23 -10 -54 -54
-59 -21 -142 60 -153 85 -11 132 22 132 94 0 33 -6 50 -23 67 -23 23 -23 24
-5 46 10 13 18 38 18 60 0 64 -73 107 -140 83z m88 -45 c7 -7 12 -26 12 -43 0
-39 -16 -55 -55 -55 -39 0 -55 16 -55 55 0 39 16 55 55 55 17 0 36 -5 43 -12z
m9 -160 c45 -42 15 -108 -50 -108 -70 0 -101 59 -55 107 28 30 74 30 105 1z"/>
<path d="M9143 1540 c-86 -35 -91 -300 -6 -339 51 -23 110 -7 135 37 8 15 21
52 28 83 11 48 10 65 -4 120 -24 96 -77 130 -153 99z m83 -38 c22 -14 47 -111
41 -161 -11 -90 -41 -122 -101 -107 -57 14 -75 178 -26 246 21 30 59 40 86 22z"/>
<path d="M10559 1532 c-13 -10 -36 -23 -51 -30 -36 -15 -41 -57 -5 -46 12 3
30 13 40 22 16 14 17 7 17 -136 0 -145 1 -152 20 -152 19 0 20 7 20 180 0 99
-4 180 -9 180 -4 0 -19 -8 -32 -18z"/>
<path d="M10788 1542 c-9 -4 -27 -20 -40 -37 -21 -27 -23 -40 -23 -135 0 -94
2 -108 23 -137 41 -57 120 -57 162 -1 20 27 25 48 28 119 5 100 -8 149 -45
179 -25 20 -72 25 -105 12z m88 -46 c17 -13 19 -27 19 -126 0 -99 -2 -113 -19
-126 -25 -18 -67 -18 -92 0 -16 12 -20 29 -22 113 -3 88 -2 101 18 126 24 30
64 36 96 13z"/>
<path d="M11052 1543 c-7 -3 -25 -24 -40 -47 -23 -37 -26 -50 -26 -131 0 -75
4 -96 23 -126 36 -60 105 -67 156 -16 28 28 34 43 40 98 10 90 -8 178 -40 207
-25 21 -79 29 -113 15z m87 -52 c26 -26 35 -78 28 -160 -7 -72 -28 -101 -72
-101 -13 0 -32 8 -44 18 -42 33 -41 203 2 242 27 25 62 25 86 1z"/>
<path d="M12344 1539 c-3 -6 -26 -20 -50 -31 -31 -13 -44 -25 -44 -39 0 -16 4
-19 23 -14 12 4 26 11 32 16 5 5 15 9 22 9 10 0 13 -33 13 -145 0 -122 2 -145
15 -145 13 0 15 27 15 180 0 166 -5 202 -26 169z"/>
<path d="M12540 1537 c-14 -7 -26 -22 -28 -35 -3 -21 -2 -21 25 -7 58 30 110
17 119 -30 8 -44 -10 -74 -73 -124 -59 -47 -78 -72 -88 -118 l-7 -33 112 0
c101 0 111 2 108 18 -3 14 -16 17 -86 20 -96 3 -105 16 -46 66 118 100 117 99
118 155 1 46 -3 56 -27 77 -32 27 -86 32 -127 11z"/>
<path d="M12800 1520 c-21 -23 -30 -45 -36 -86 -8 -68 -1 -159 16 -195 20 -45
81 -62 134 -38 80 37 89 281 13 334 -12 8 -39 15 -60 15 -30 0 -45 -7 -67 -30z
m121 -42 c18 -25 23 -45 23 -107 1 -64 -3 -81 -22 -109 -17 -22 -31 -32 -50
-32 -32 0 -42 7 -65 42 -33 53 -16 201 27 230 26 18 65 8 87 -24z"/>
<path d="M14108 1531 c-13 -11 -37 -23 -51 -26 -20 -5 -27 -14 -27 -31 0 -28
5 -29 40 -9 14 8 28 14 33 15 4 0 7 -65 7 -145 0 -122 2 -145 15 -145 13 0 15
27 15 180 0 99 -2 180 -4 180 -2 0 -14 -9 -28 -19z"/>
<path d="M14395 1529 c-11 -32 -61 -106 -117 -172 -16 -17 -28 -42 -28 -54 0
-22 3 -23 80 -23 l80 0 0 -45 c0 -38 3 -45 20 -45 17 0 20 7 20 45 0 38 3 45
20 45 13 0 20 7 20 20 0 13 -7 20 -20 20 -19 0 -20 7 -20 115 l0 115 -24 0
c-16 0 -27 -7 -31 -21z m15 -139 l0 -70 -55 0 c-30 0 -55 4 -55 8 0 5 11 19
25 32 14 13 25 28 25 33 0 11 43 66 53 66 4 1 7 -30 7 -69z"/>
<path d="M14580 1522 c-74 -74 -62 -285 18 -321 40 -19 80 -13 112 17 61 55
64 249 4 308 -34 35 -96 33 -134 -4z m100 -22 c25 -13 40 -62 40 -132 0 -74
-20 -125 -54 -134 -63 -15 -96 29 -96 131 0 113 46 169 110 135z"/>
<path d="M7080 365 c0 -218 1 -225 20 -225 19 0 20 7 20 225 0 218 -1 225 -20
225 -19 0 -20 -7 -20 -225z"/>
<path d="M7550 420 c0 -144 2 -170 15 -170 12 0 15 16 15 80 l0 80 35 0 c28 0
35 4 35 20 0 16 -7 20 -35 20 l-35 0 0 70 c0 56 -3 70 -15 70 -13 0 -15 -26
-15 -170z"/>
<path d="M6863 563 c-9 -3 -13 -28 -14 -71 -1 -85 -14 -120 -68 -183 -29 -34
-40 -54 -33 -61 13 -13 71 43 103 100 l23 43 14 -27 c16 -30 22 -38 69 -90 18
-20 37 -33 43 -29 16 10 12 17 -25 57 -54 57 -85 131 -85 206 0 61 -2 66 -27
55z"/>
<path d="M7260 550 c0 -18 6 -20 75 -20 80 0 85 -4 66 -52 -13 -34 -87 -103
-132 -123 -41 -19 -49 -32 -25 -41 19 -7 62 16 118 65 48 43 84 105 90 156 l3
30 -97 3 c-93 3 -98 2 -98 -18z"/>
<path d="M7302 223 l3 -68 143 -3 c137 -2 142 -2 142 18 0 19 -6 20 -130 20
l-130 0 0 50 c0 38 -4 50 -15 50 -13 0 -15 -12 -13 -67z"/>
</g>
</svg>
