<?xml version="1.0" standalone="no"?>
<!DOCTYPE svg PUBLIC "-//W3C//DTD SVG 20010904//EN"
 "http://www.w3.org/TR/2001/REC-SVG-20010904/DTD/svg10.dtd">
<svg version="1.0" xmlns="http://www.w3.org/2000/svg"
 width="1302.000000pt" height="1206.000000pt" viewBox="0 0 1302.000000 1206.000000"
 preserveAspectRatio="xMidYMid meet">

<g transform="translate(0.000000,1206.000000) scale(0.100000,-0.100000)"
fill="#000000" stroke="none">
<path d="M1520 11611 c0 -24 -19 -39 -58 -47 -46 -9 -41 -32 9 -36 l40 -3 2
-130 c2 -115 4 -130 20 -133 16 -3 17 11 17 182 0 159 -2 186 -15 186 -8 0
-15 -8 -15 -19z"/>
<path d="M1891 11605 c-42 -36 -55 -83 -49 -180 6 -94 17 -118 61 -145 46 -28
81 -25 121 11 54 47 71 141 45 245 -23 88 -113 123 -178 69z m102 -25 c36 -28
53 -113 38 -188 -13 -64 -34 -92 -68 -92 -59 0 -83 42 -83 147 0 75 20 130 52
143 32 12 32 12 61 -10z"/>
<path d="M2255 11463 c1 -16 3 -31 3 -35 1 -5 45 -8 97 -8 l95 0 0 -925 0
-925 -62 -1 c-57 -1 -114 -4 -129 -8 -5 -1 -5 -40 -1 -63 1 -5 45 -8 97 -8
l95 0 0 -915 0 -914 -96 -3 -97 -3 -3 -32 -4 -33 100 0 100 0 0 -419 c0 -231
4 -422 8 -425 4 -2 20 11 35 29 l27 34 0 2309 c0 2097 1 2310 16 2316 9 3 24
6 35 6 10 0 19 5 19 10 0 6 -14 10 -30 10 -18 0 -33 6 -36 15 -5 12 -30 15
-139 15 l-132 0 2 -27z"/>
<path d="M2692 11449 c2 -6 7 -10 11 -10 4 1 30 1 57 1 28 0 50 5 50 10 0 6
-27 10 -61 10 -39 0 -59 -4 -57 -11z"/>
<path d="M2903 11448 c2 -7 9 -13 15 -12 7 1 32 2 57 3 68 2 54 21 -16 21 -44
0 -60 -3 -56 -12z"/>
<path d="M3122 11449 c2 -7 25 -12 53 -12 28 0 51 5 53 12 2 7 -15 11 -53 11
-38 0 -55 -4 -53 -11z"/>
<path d="M3332 11449 c2 -6 7 -10 11 -10 4 1 30 1 57 1 28 0 50 5 50 10 0 6
-27 10 -61 10 -39 0 -59 -4 -57 -11z"/>
<path d="M3542 11449 c2 -7 27 -12 58 -12 31 0 56 5 58 12 2 7 -16 11 -58 11
-42 0 -60 -4 -58 -11z"/>
<path d="M3740 11450 c0 -5 23 -10 50 -10 28 0 53 0 57 -1 4 0 9 4 11 10 2 7
-18 11 -57 11 -34 0 -61 -4 -61 -10z"/>
<path d="M3950 11451 c0 -9 84 -19 114 -13 9 2 16 8 16 13 0 5 -29 9 -65 9
-36 0 -65 -4 -65 -9z"/>
<path d="M4170 11451 c0 -5 25 -11 56 -13 54 -3 71 2 57 16 -10 10 -113 7
-113 -3z"/>
<path d="M4380 11450 c0 -5 23 -10 50 -10 28 0 53 0 57 -1 4 0 9 4 11 10 2 7
-18 11 -57 11 -34 0 -61 -4 -61 -10z"/>
<path d="M4595 11450 c-4 -6 18 -10 59 -10 37 0 66 4 66 10 0 6 -26 10 -59 10
-33 0 -63 -4 -66 -10z"/>
<path d="M4810 11450 c0 -6 27 -10 60 -10 33 0 60 4 60 10 0 6 -27 10 -60 10
-33 0 -60 -4 -60 -10z"/>
<path d="M5032 11449 c5 -16 108 -18 108 -2 0 9 -17 13 -56 13 -36 0 -54 -4
-52 -11z"/>
<path d="M5240 11450 c0 -6 27 -10 60 -10 33 0 60 4 60 10 0 6 -27 10 -60 10
-33 0 -60 -4 -60 -10z"/>
<path d="M5450 11450 c0 -6 27 -10 60 -10 33 0 60 4 60 10 0 6 -27 10 -60 10
-33 0 -60 -4 -60 -10z"/>
<path d="M5672 11448 c3 -7 14 -12 26 -11 12 0 38 1 58 2 58 2 28 21 -32 21
-40 0 -54 -4 -52 -12z"/>
<path d="M5880 11450 c0 -5 18 -10 40 -10 22 0 43 0 47 -1 4 0 9 4 11 10 2 7
-15 11 -47 11 -28 0 -51 -4 -51 -10z"/>
<path d="M6080 11451 c0 -5 25 -11 55 -13 39 -2 55 1 55 10 0 8 -18 12 -55 12
-30 0 -55 -4 -55 -9z"/>
<path d="M6290 11450 c0 -5 23 -10 50 -10 28 0 53 0 57 -1 4 0 9 4 11 10 2 7
-18 11 -57 11 -34 0 -61 -4 -61 -10z"/>
<path d="M6500 11450 c0 -5 23 -10 50 -10 28 0 53 0 57 -1 4 0 9 4 11 10 2 7
-18 11 -57 11 -34 0 -61 -4 -61 -10z"/>
<path d="M6720 11450 c0 -5 23 -10 50 -10 28 0 53 0 57 -1 4 0 9 4 11 10 2 7
-18 11 -57 11 -34 0 -61 -4 -61 -10z"/>
<path d="M6930 11451 c0 -14 15 -16 70 -13 70 5 63 22 -10 22 -33 0 -60 -4
-60 -9z"/>
<path d="M7152 11449 c2 -7 25 -12 53 -12 28 0 51 5 53 12 2 7 -15 11 -53 11
-38 0 -55 -4 -53 -11z"/>
<path d="M7360 11450 c0 -5 23 -10 50 -10 28 0 53 0 57 -1 4 0 9 4 11 10 2 7
-18 11 -57 11 -34 0 -61 -4 -61 -10z"/>
<path d="M7575 11450 c-4 -6 18 -10 59 -10 37 0 66 4 66 10 0 6 -26 10 -59 10
-33 0 -63 -4 -66 -10z"/>
<path d="M7792 11449 c2 -7 24 -12 51 -11 67 1 67 1 67 12 0 6 -27 10 -61 10
-41 0 -59 -4 -57 -11z"/>
<path d="M8010 11450 c0 -5 20 -10 45 -10 25 0 48 0 52 -1 4 0 9 4 11 10 2 7
-17 11 -52 11 -31 0 -56 -4 -56 -10z"/>
<path d="M8202 11448 c3 -7 16 -12 31 -11 15 1 41 1 57 2 58 2 30 21 -31 21
-43 0 -59 -4 -57 -12z"/>
<path d="M8422 11449 c2 -7 25 -12 53 -12 28 0 51 5 53 12 2 7 -15 11 -53 11
-38 0 -55 -4 -53 -11z"/>
<path d="M8632 11449 c2 -6 7 -10 11 -10 4 1 30 1 57 1 28 0 50 5 50 10 0 6
-27 10 -61 10 -39 0 -59 -4 -57 -11z"/>
<path d="M8842 11449 c2 -7 27 -12 58 -12 31 0 56 5 58 12 2 7 -16 11 -58 11
-42 0 -60 -4 -58 -11z"/>
<path d="M9062 11448 c6 -16 108 -17 108 0 0 8 -18 12 -56 12 -38 0 -54 -4
-52 -12z"/>
<path d="M9270 11450 c0 -6 27 -10 60 -10 33 0 60 4 60 10 0 6 -27 10 -60 10
-33 0 -60 -4 -60 -10z"/>
<path d="M9485 11450 c-7 -12 -10 -11 57 -12 31 0 54 4 56 11 5 14 -104 15
-113 1z"/>
<path d="M9702 11449 c5 -14 108 -16 108 -3 0 5 -25 10 -56 12 -40 2 -55 0
-52 -9z"/>
<path d="M9910 11450 c0 -6 27 -10 60 -10 33 0 60 4 60 10 0 6 -27 10 -60 10
-33 0 -60 -4 -60 -10z"/>
<path d="M10130 11448 c0 -17 102 -16 108 1 2 7 -15 11 -52 11 -38 0 -56 -4
-56 -12z"/>
<path d="M10340 11450 c0 -5 18 -10 40 -10 22 0 43 0 47 -1 4 0 9 4 11 10 2 7
-15 11 -47 11 -28 0 -51 -4 -51 -10z"/>
<path d="M10540 11448 c0 -9 16 -12 55 -10 71 5 71 22 0 22 -37 0 -55 -4 -55
-12z"/>
<path d="M10750 11450 c0 -6 27 -10 60 -10 33 0 60 4 60 10 0 6 -27 10 -60 10
-33 0 -60 -4 -60 -10z"/>
<path d="M10962 11448 c6 -16 111 -15 116 0 2 8 -15 12 -58 12 -43 0 -60 -4
-58 -12z"/>
<path d="M11182 11449 c2 -6 7 -10 11 -10 4 1 27 1 52 1 25 0 45 5 45 10 0 6
-25 10 -56 10 -35 0 -54 -4 -52 -11z"/>
<path d="M11390 11450 c0 -11 0 -11 67 -12 27 -1 49 4 51 11 2 7 -16 11 -57
11 -34 0 -61 -4 -61 -10z"/>
<path d="M11602 11449 c2 -7 27 -12 58 -12 31 0 56 5 58 12 2 7 -16 11 -58 11
-42 0 -60 -4 -58 -11z"/>
<path d="M11822 11449 c2 -6 7 -10 11 -10 4 1 30 1 57 1 28 0 50 5 50 10 0 6
-27 10 -61 10 -39 0 -59 -4 -57 -11z"/>
<path d="M12030 11451 c0 -5 7 -11 15 -15 9 -3 15 0 15 9 0 8 -7 15 -15 15 -8
0 -15 -4 -15 -9z"/>
<path d="M1727 11313 c-4 -3 -7 -17 -7 -30 0 -20 5 -24 22 -21 26 3 37 36 16
49 -16 11 -23 11 -31 2z"/>
<path d="M1480 9716 c-25 -9 -41 -24 -55 -52 -37 -74 -29 -223 14 -272 40 -46
122 -44 160 4 62 79 49 263 -22 308 -35 22 -59 25 -97 12z m85 -50 c39 -39 46
-169 13 -242 -24 -52 -105 -42 -125 16 -16 48 -16 154 1 194 24 58 71 72 111
32z"/>
<path d="M1904 9711 c-23 -10 -44 -26 -47 -36 -13 -34 -7 -82 13 -100 19 -18
19 -18 -5 -47 -27 -32 -33 -84 -14 -120 14 -27 93 -61 122 -52 78 23 107 54
107 115 0 21 -9 39 -31 59 -30 27 -31 28 -11 39 11 6 23 24 27 39 10 46 -10
81 -57 102 -53 24 -53 24 -104 1z m98 -38 c40 -36 13 -103 -42 -103 -63 0 -92
58 -50 100 24 24 67 26 92 3z m4 -151 c15 -10 34 -47 34 -67 0 -9 -11 -27 -25
-40 -66 -67 -173 16 -119 93 11 17 25 22 57 22 23 0 47 -4 53 -8z"/>
<path d="M1727 9403 c-10 -9 -8 -41 2 -47 16 -10 41 5 41 24 0 10 -7 21 -16
24 -19 7 -19 7 -27 -1z"/>
<path d="M652 8642 c-49 -18 -102 -56 -102 -73 0 -4 37 9 81 28 73 32 88 35
148 31 46 -4 86 -14 129 -35 87 -41 81 -3 -6 41 -52 27 -185 31 -250 8z"/>
<path d="M690 8475 l0 -34 -92 -3 -93 -3 0 -130 c0 -116 2 -130 18 -133 15 -3
17 8 17 117 l0 121 75 0 74 0 3 -157 c2 -114 6 -157 16 -161 9 -3 12 16 12 72
l0 76 65 0 c51 0 65 3 65 15 0 12 -14 15 -65 15 l-65 0 0 40 0 39 62 3 c50 2
63 7 66 20 3 14 -7 17 -60 20 l-63 3 -3 58 c-2 42 -7 57 -17 57 -10 0 -15 -11
-15 -35z"/>
<path d="M900 8325 c0 -93 -3 -125 -12 -126 -105 -8 -98 -6 -98 -24 0 -12 15
-15 75 -15 l75 0 0 145 c0 138 -1 145 -20 145 -19 0 -20 -7 -20 -125z"/>
<path d="M822 7993 c-37 -15 -62 -139 -43 -208 23 -83 69 -105 122 -57 29 26
33 36 37 90 6 81 -3 124 -33 156 -22 24 -53 31 -83 19z m69 -60 c14 -36 13
-137 -1 -163 -6 -11 -21 -20 -34 -20 -39 0 -51 26 -51 108 1 61 4 77 20 88 30
22 54 17 66 -13z"/>
<path d="M490 7975 c0 -11 11 -15 40 -15 l40 0 0 -40 c0 -33 3 -40 19 -40 16
0 20 8 23 37 4 52 28 56 28 4 0 -34 3 -41 19 -41 16 0 20 8 23 38 3 36 4 37
46 40 28 2 42 8 42 18 0 11 -25 14 -140 14 -118 0 -140 -2 -140 -15z"/>
<path d="M717 7903 c-4 -3 -7 -19 -7 -35 l0 -28 -70 0 c-72 0 -91 -13 -44 -30
14 -6 45 -10 70 -10 43 0 44 -1 44 -34 0 -31 -3 -34 -37 -40 -21 -3 -53 -6
-71 -6 -23 0 -32 -4 -29 -12 3 -9 24 -12 70 -10 l66 2 3 -32 c2 -17 9 -33 16
-36 9 -3 12 29 12 137 0 129 -4 153 -23 134z"/>
<path d="M522 7768 c2 -86 7 -123 16 -126 9 -3 12 26 12 122 0 106 -2 126 -15
126 -13 0 -15 -18 -13 -122z"/>
<path d="M1469 7800 c-45 -24 -69 -84 -69 -172 0 -74 33 -156 67 -169 107 -40
182 47 170 197 -6 76 -22 112 -66 141 -41 28 -55 28 -102 3z m96 -44 c44 -44
46 -197 3 -251 -27 -35 -73 -31 -102 8 -25 33 -34 141 -17 203 17 63 73 83
116 40z"/>
<path d="M1923 7806 c-61 -34 -83 -85 -83 -194 0 -115 47 -169 139 -159 97 11
136 114 68 182 -46 46 -78 52 -122 26 -31 -18 -36 -19 -42 -5 -9 23 18 93 41
110 33 23 65 17 96 -18 24 -26 32 -30 42 -20 16 16 2 39 -42 70 -36 24 -63 27
-97 8z m100 -197 c25 -31 21 -72 -9 -103 -37 -36 -75 -34 -108 5 -35 41 -33
71 6 104 37 31 82 29 111 -6z"/>
<path d="M550 7562 c0 -13 30 -37 80 -63 38 -20 60 -24 135 -24 81 0 95 3 145
30 30 17 56 37 58 46 2 14 -6 12 -50 -10 -47 -23 -65 -26 -153 -26 -89 0 -106
3 -153 28 -59 30 -62 31 -62 19z"/>
<path d="M1727 7494 c-10 -10 -9 -42 2 -48 18 -11 42 6 39 28 -3 21 -28 33
-41 20z"/>
<path d="M850 7159 l0 -100 -52 3 -53 3 -3 63 c-2 46 -7 62 -17 62 -12 0 -15
-22 -15 -120 l0 -120 -70 0 -70 0 0 120 c0 100 -2 120 -15 120 -13 0 -15 -22
-15 -140 l0 -140 100 0 99 0 3 58 3 57 52 3 52 3 3 -97 c2 -67 7 -99 16 -102
9 -3 12 44 12 212 0 185 -2 216 -15 216 -12 0 -15 -18 -15 -101z"/>
<path d="M513 6732 c-55 -8 -9 -33 52 -29 29 2 30 1 35 -52 7 -76 30 -81 30
-7 0 51 2 56 23 57 20 1 59 4 95 8 8 0 12 6 10 13 -4 11 -185 18 -245 10z"/>
<path d="M791 6714 c-35 -45 -41 -173 -9 -223 16 -26 61 -45 86 -37 10 4 30
18 43 32 22 23 24 34 24 114 0 80 -2 91 -24 114 -34 36 -92 36 -120 0z m96
-34 c20 -39 17 -143 -5 -170 -44 -55 -100 12 -89 106 9 86 64 123 94 64z"/>
<path d="M2456 6674 c-3 -8 -6 -220 -6 -469 l0 -454 -97 -3 -98 -3 -3 -32 -3
-33 100 0 101 0 2 -905 c0 -498 1 -911 2 -917 1 -9 -28 -14 -99 -18 l-100 -5
0 -30 1 -30 97 -3 97 -3 0 -919 0 -919 -97 -3 -97 -3 0 -30 0 -30 97 -3 97 -3
0 -87 c0 -48 4 -91 8 -97 4 -5 18 -10 32 -10 25 0 25 2 30 95 l5 95 1553 3
1552 2 0 -94 c0 -56 4 -98 11 -101 5 -4 21 -4 35 -1 23 6 24 9 24 101 l0 95
1560 0 1559 0 3 -97 c3 -104 0 -99 53 -94 11 1 15 21 17 93 l3 93 1548 3 1547
2 1 -67 c2 -117 1 -116 33 -124 16 -5 33 -6 38 -3 4 3 8 63 8 135 l0 129
-4772 2 -4773 3 -3 2349 -2 2350 -29 28 c-24 24 -30 26 -35 12z"/>
<path d="M689 6601 c-21 -36 -78 -80 -110 -83 -22 -3 -24 1 -27 50 -2 38 -7
52 -18 52 -12 0 -14 -19 -12 -117 2 -70 7 -118 13 -118 6 0 11 21 13 48 3 44
5 47 32 47 30 0 106 -56 126 -92 9 -17 12 -18 23 -4 11 12 8 21 -14 51 -15 19
-30 35 -34 35 -3 0 -14 7 -25 15 -17 13 -16 15 18 46 49 43 62 67 44 85 -11
11 -16 9 -29 -15z"/>
<path d="M497 6083 c-16 -15 -5 -23 33 -23 l40 0 0 -40 c0 -33 3 -40 19 -40
16 0 20 8 23 37 4 52 28 56 28 4 0 -34 3 -41 19 -41 16 0 20 8 23 38 3 36 4
37 46 40 28 2 42 8 42 18 0 11 -24 14 -133 14 -74 0 -137 -3 -140 -7z"/>
<path d="M814 6082 c-48 -32 -56 -198 -12 -254 25 -31 65 -31 100 1 33 29 33
30 33 119 0 82 -2 93 -24 116 -24 26 -72 35 -97 18z m74 -47 c7 -14 12 -53 12
-85 0 -74 -15 -110 -46 -110 -38 0 -61 69 -49 146 10 71 60 100 83 49z"/>
<path d="M710 5965 l0 -36 -67 3 c-46 2 -67 -1 -70 -9 -3 -9 8 -13 35 -13 22
0 54 -3 71 -6 27 -6 31 -11 31 -40 l0 -33 -70 -7 c-90 -9 -88 -28 3 -32 63 -3
66 -4 69 -29 2 -15 9 -28 16 -31 9 -3 12 28 12 132 0 114 -2 136 -15 136 -10
0 -15 -11 -15 -35z"/>
<path d="M520 5870 c0 -100 3 -120 15 -120 13 0 15 20 15 120 0 100 -2 120
-15 120 -12 0 -15 -20 -15 -120z"/>
<path d="M1475 5881 c-48 -20 -75 -82 -75 -170 0 -72 15 -124 45 -158 20 -24
31 -28 73 -28 62 0 83 18 106 86 43 135 -7 280 -96 278 -18 0 -42 -4 -53 -8z
m93 -52 c44 -46 41 -209 -4 -254 -25 -24 -81 -19 -99 9 -35 53 -31 210 6 247
25 25 73 24 97 -2z"/>
<path d="M1978 5863 c-9 -16 -46 -68 -82 -118 -36 -49 -66 -100 -66 -112 0
-21 5 -22 78 -25 l77 -3 3 -43 c3 -34 7 -43 19 -40 12 2 17 14 17 43 1 32 5
40 21 43 42 7 48 11 35 27 -6 7 -20 15 -31 17 -18 3 -20 13 -23 118 -4 124
-15 146 -48 93z m12 -138 l0 -75 -61 0 c-45 0 -58 3 -53 13 11 17 74 109 87
125 20 25 27 10 27 -63z"/>
<path d="M690 5555 l0 -105 -45 0 c-33 0 -45 -4 -45 -15 0 -11 12 -15 45 -15
l45 0 0 -90 c0 -73 3 -90 15 -90 13 0 15 30 15 210 0 180 -2 210 -15 210 -12
0 -15 -18 -15 -105z"/>
<path d="M507 5593 c-9 -8 -9 -246 -1 -267 3 -9 12 -16 20 -16 10 0 14 28 16
128 l3 127 53 -3 c41 -3 52 -1 52 11 0 22 -124 39 -143 20z"/>
<path d="M802 5565 c-37 -47 -40 -160 -6 -226 25 -49 68 -52 110 -8 27 29 29
35 29 114 0 69 -4 88 -21 112 -30 40 -84 44 -112 8z m82 -27 c23 -33 22 -149
-2 -178 -13 -16 -24 -21 -40 -16 -47 15 -55 162 -11 199 28 22 35 22 53 -5z"/>
<path d="M1733 5573 c-7 -3 -13 -16 -13 -29 0 -19 5 -24 25 -24 20 0 25 5 25
24 0 25 -15 36 -37 29z"/>
<path d="M702 4973 c2 -151 6 -207 15 -210 9 -3 13 22 15 94 2 79 6 98 18 98
11 0 16 -15 18 -62 2 -47 7 -63 17 -63 12 0 15 22 15 119 0 162 19 169 22 9
l3 -123 58 -3 57 -3 0 146 c0 138 -1 145 -20 145 -19 0 -20 -7 -20 -125 0
-118 -1 -125 -20 -125 -19 0 -20 7 -20 120 l0 120 -45 0 -45 0 0 -60 c0 -53
-2 -60 -20 -60 -19 0 -20 7 -20 95 0 78 -3 95 -15 95 -13 0 -15 -27 -13 -207z"/>
<path d="M507 5104 c-10 -11 3 -24 24 -24 18 0 19 -8 19 -104 0 -100 -1 -105
-22 -108 -12 -2 -23 -9 -26 -15 -3 -10 16 -13 72 -13 l76 0 0 135 0 135 -68 0
c-38 0 -72 -3 -75 -6z m113 -134 c0 -93 -1 -100 -20 -100 -19 0 -20 7 -20 100
0 93 1 100 20 100 19 0 20 -7 20 -100z"/>
<path d="M1457 3960 c-41 -32 -60 -98 -55 -182 6 -85 26 -131 68 -153 58 -30
106 -13 141 49 20 34 24 54 24 126 -1 92 -16 136 -57 164 -31 22 -90 20 -121
-4z m92 -25 c35 -18 41 -32 47 -115 10 -125 -31 -190 -103 -164 -35 12 -52 57
-52 141 -1 72 11 111 42 135 27 21 31 22 66 3z"/>
<path d="M1903 3970 c-26 -10 -63 -66 -63 -92 0 -29 34 -21 47 11 25 67 93 76
136 19 32 -42 11 -78 -80 -134 -74 -47 -95 -72 -108 -132 l-7 -33 124 3 c108
3 123 5 126 21 3 15 -6 17 -92 17 -52 0 -98 4 -101 10 -11 18 29 59 83 87 109
55 141 130 84 194 -23 26 -37 32 -78 35 -27 2 -59 0 -71 -6z"/>
<path d="M1720 3634 c0 -21 4 -25 23 -22 14 2 23 11 25 26 3 18 -1 22 -22 22
-21 0 -26 -5 -26 -26z"/>
<path d="M1464 2056 c-25 -11 -35 -25 -49 -66 -22 -66 -17 -169 10 -224 42
-83 153 -79 191 7 25 55 25 188 1 234 -32 61 -86 78 -153 49z m94 -33 c40 -36
54 -143 28 -228 -14 -47 -49 -65 -93 -49 -40 14 -56 68 -50 168 3 71 7 82 31
103 32 28 57 29 84 6z"/>
<path d="M1898 2053 c-37 -23 -58 -80 -58 -160 0 -128 35 -183 116 -183 53 0
99 35 114 88 26 95 1 219 -51 256 -30 21 -86 20 -121 -1z m92 -23 c19 -10 50
-94 50 -136 0 -43 -22 -124 -37 -140 -10 -9 -29 -14 -52 -12 -48 4 -70 47 -71
140 0 123 44 183 110 148z"/>
<path d="M1720 1731 c0 -24 13 -33 34 -25 27 10 20 44 -9 44 -18 0 -25 -5 -25
-19z"/>
<path d="M2478 1490 c-12 -20 -25 -30 -41 -30 -29 0 -57 -27 -36 -34 8 -3 28
-6 44 -8 l30 -3 3 -133 c2 -113 5 -133 18 -130 13 3 15 30 15 183 0 99 -4 181
-8 182 -4 2 -16 -11 -25 -27z"/>
<path d="M5522 1496 c-6 -15 -23 -28 -39 -32 -56 -13 -72 -44 -24 -44 61 0 61
0 61 -142 0 -111 2 -129 15 -126 13 3 16 30 16 183 1 176 -5 212 -29 161z"/>
<path d="M5758 1505 c-46 -26 -60 -67 -60 -171 -1 -114 16 -151 79 -173 51
-18 93 -4 126 43 19 27 22 43 22 138 0 107 0 108 -31 139 -37 37 -95 47 -136
24z m90 -32 c58 -52 56 -240 -3 -279 -38 -25 -70 -11 -94 39 -39 80 -23 203
30 241 30 20 42 20 67 -1z"/>
<path d="M8562 1496 c-7 -16 -25 -29 -52 -37 -51 -15 -52 -37 -2 -41 l37 -3 5
-130 c4 -115 7 -130 23 -130 9 0 17 3 17 8 0 4 0 86 0 182 0 96 -4 175 -8 175
-5 0 -14 -11 -20 -24z"/>
<path d="M8793 1500 c-63 -38 -82 -197 -36 -288 27 -52 82 -71 136 -49 56 24
81 85 75 186 -5 88 -25 134 -68 156 -39 20 -68 19 -107 -5z m86 -24 c50 -26
69 -172 33 -245 -22 -45 -65 -61 -94 -35 -63 56 -65 226 -4 276 26 21 30 22
65 4z"/>
<path d="M9086 1499 c-43 -34 -56 -70 -56 -159 0 -98 23 -152 75 -177 29 -14
41 -14 75 -4 59 17 84 70 83 176 0 49 -6 94 -16 117 -27 64 -109 88 -161 47z
m93 -25 c32 -23 51 -74 51 -139 0 -133 -86 -202 -140 -112 -39 63 -21 228 27
256 25 14 35 14 62 -5z"/>
<path d="M11588 1495 c-6 -14 -23 -28 -37 -32 -54 -12 -69 -43 -22 -43 56 0
56 -1 55 -128 0 -129 2 -142 22 -142 11 0 14 34 14 185 0 184 -6 216 -32 160z"/>
<path d="M11817 1490 c-46 -40 -64 -121 -46 -213 20 -100 80 -144 157 -115 53
20 76 71 76 168 0 96 -17 146 -58 171 -46 28 -89 25 -129 -11z m108 -23 c52
-44 57 -191 8 -255 -48 -64 -109 -23 -120 80 -8 80 4 146 32 174 30 30 47 30
80 1z"/>
<path d="M12130 1503 c-44 -23 -59 -63 -59 -165 -1 -100 18 -151 66 -173 47
-23 95 -13 127 26 34 40 39 62 35 169 -4 85 -6 91 -34 120 -39 39 -88 47 -135
23z m81 -23 c33 -18 49 -64 49 -140 0 -114 -40 -177 -96 -151 -73 33 -85 228
-16 281 28 23 36 24 63 10z"/>
<path d="M12435 1511 c-59 -24 -92 -126 -74 -226 19 -110 84 -157 162 -120 49
23 62 60 62 180 0 84 -3 104 -20 127 -30 41 -85 57 -130 39z m68 -32 c36 -17
47 -50 47 -148 0 -74 -3 -93 -20 -114 -39 -50 -86 -44 -116 15 -12 23 -15 52
-12 120 3 84 5 91 31 114 32 27 37 28 70 13z"/>
<path d="M6333 803 c-10 -3 -13 -41 -13 -139 0 -112 2 -134 15 -134 11 0 15
12 15 50 0 43 3 52 23 59 12 5 28 6 35 4 7 -3 12 3 12 15 0 16 -7 21 -32 24
-33 3 -33 3 -33 60 0 60 -3 68 -22 61z"/>
<path d="M6585 793 c-47 -24 -63 -42 -69 -76 -19 -103 89 -173 181 -117 18 11
35 31 39 45 5 21 12 25 45 25 l39 0 0 -45 c0 -33 4 -45 15 -45 12 0 15 19 15
113 0 94 -3 114 -15 114 -11 0 -15 -13 -15 -54 l0 -53 -39 0 c-34 0 -39 3 -47
32 -16 55 -97 88 -149 61z m92 -38 c29 -21 38 -66 19 -103 -25 -49 -82 -57
-121 -17 -31 30 -32 73 -4 109 24 30 71 35 106 11z"/>
<path d="M7300 580 c0 -198 2 -230 15 -230 13 0 15 32 15 224 0 190 -2 225
-15 230 -13 5 -15 -24 -15 -224z"/>
<path d="M8418 803 c-3 -4 -6 -108 -7 -230 -2 -210 -1 -223 16 -223 17 0 18
13 16 222 -2 194 -9 261 -25 231z"/>
<path d="M7940 690 c0 -91 3 -110 15 -110 12 0 15 19 15 110 0 91 -3 110 -15
110 -12 0 -15 -19 -15 -110z"/>
<path d="M7646 775 c-4 -13 8 -15 74 -15 86 0 94 -6 68 -53 -18 -35 -90 -96
-125 -108 -31 -10 -43 -32 -25 -43 11 -7 123 60 145 87 25 31 67 113 67 132 0
22 -195 22 -204 0z"/>
<path d="M6020 765 c0 -11 12 -15 44 -15 25 0 47 -4 50 -8 14 -22 -17 -83 -61
-120 -37 -33 -44 -43 -35 -57 9 -17 16 -13 66 37 l56 56 21 -29 c17 -24 66
-59 82 -59 3 0 7 7 11 15 3 10 -5 20 -25 30 -36 19 -69 70 -69 108 0 25 3 27
45 27 33 0 45 4 45 15 0 12 -19 15 -115 15 -96 0 -115 -3 -115 -15z"/>
<path d="M7039 747 c-88 -59 -51 -179 59 -194 48 -6 117 40 127 85 21 97 -100
167 -186 109z m119 -27 c36 -29 39 -74 9 -104 -52 -52 -137 -22 -137 49 0 63
78 97 128 55z"/>
<path d="M8158 754 c-57 -30 -76 -150 -38 -229 21 -44 53 -65 98 -65 85 0 142
140 96 236 -33 68 -95 92 -156 58z m103 -40 c21 -22 24 -35 24 -101 0 -67 -3
-77 -24 -94 -53 -43 -119 -5 -128 73 -7 60 0 86 32 121 32 34 64 34 96 1z"/>
<path d="M6580 455 l0 -95 135 0 135 0 0 95 c0 78 -3 95 -15 95 -10 0 -15 -10
-15 -30 l0 -30 -105 0 -105 0 0 30 c0 20 -5 30 -15 30 -12 0 -15 -17 -15 -95z
m240 -35 l0 -30 -105 0 -105 0 0 30 0 30 105 0 105 0 0 -30z"/>
<path d="M7700 535 c0 -12 20 -15 120 -15 l120 0 0 -25 0 -25 -120 0 -120 0 0
-55 0 -55 140 0 c118 0 140 2 140 15 0 13 -21 15 -125 15 l-125 0 0 25 0 25
120 0 120 0 0 55 0 55 -135 0 c-113 0 -135 -2 -135 -15z"/>
<path d="M6067 496 c-3 -8 -3 -17 0 -20 4 -3 62 -6 130 -6 l123 0 0 -60 c0
-50 3 -60 18 -60 17 0 19 26 13 143 -1 15 -15 17 -140 17 -110 0 -140 -3 -144
-14z"/>
<path d="M7073 463 c-91 -3 -113 -6 -113 -18 0 -12 17 -15 88 -15 135 0 222
11 222 26 0 10 -12 13 -42 12 -24 -1 -94 -4 -155 -5z"/>
</g>
</svg>
