<?xml version="1.0" standalone="no"?>
<!DOCTYPE svg PUBLIC "-//W3C//DTD SVG 20010904//EN"
 "http://www.w3.org/TR/2001/REC-SVG-20010904/DTD/svg10.dtd">
<svg version="1.0" xmlns="http://www.w3.org/2000/svg"
 width="1482.000000pt" height="524.000000pt" viewBox="0 0 1482.000000 524.000000"
 preserveAspectRatio="xMidYMid meet">

<g transform="translate(0.000000,524.000000) scale(0.100000,-0.100000)"
fill="#000000" stroke="none">
<path d="M2225 5063 c-3 -16 -13 -41 -20 -58 -8 -16 -20 -50 -29 -75 -8 -25
-28 -79 -45 -120 -17 -41 -31 -76 -31 -77 0 -2 9 -3 20 -3 14 0 25 12 36 38 9
20 20 44 24 52 5 10 25 16 60 18 84 5 98 -2 113 -56 11 -36 19 -48 37 -50 18
-3 21 0 16 13 -3 9 -9 29 -12 43 -4 15 -11 32 -16 38 -4 6 -15 36 -24 65 -9
30 -19 59 -24 64 -4 6 -12 26 -19 45 -24 72 -36 90 -57 90 -15 0 -24 -8 -29
-27z m45 -51 c0 -9 7 -30 15 -45 8 -15 17 -43 21 -62 l6 -35 -54 0 c-58 0 -73
6 -59 24 5 6 14 29 20 51 22 70 33 95 42 89 5 -3 9 -13 9 -22z"/>
<path d="M4010 5063 c-6 -16 -15 -37 -20 -48 -21 -45 -70 -177 -70 -188 0 -7
-6 -23 -13 -37 -28 -53 -28 -60 -2 -60 14 0 25 6 25 13 0 18 31 80 44 89 6 4
39 8 72 8 60 0 62 -1 77 -32 8 -18 18 -43 22 -55 6 -22 45 -34 45 -14 0 5 -13
43 -30 84 -16 42 -30 82 -30 91 0 9 -4 16 -8 16 -5 0 -14 19 -21 43 -32 114
-69 150 -91 90z m45 -65 c4 -18 13 -42 19 -53 7 -11 16 -32 20 -47 l6 -28 -61
0 c-69 0 -68 -3 -34 90 8 25 18 51 20 58 8 23 23 12 30 -20z"/>
<path d="M5759 5048 c-6 -24 -14 -47 -19 -53 -4 -5 -15 -35 -25 -65 -10 -30
-21 -59 -25 -65 -12 -18 -42 -126 -37 -132 13 -13 36 8 47 44 19 58 26 63 96
63 64 0 94 -15 94 -45 0 -29 24 -65 43 -65 14 0 17 4 12 18 -4 9 -13 35 -20
57 -7 22 -25 69 -40 105 -14 36 -33 85 -42 110 -19 55 -30 70 -54 70 -13 0
-21 -12 -30 -42z m79 -114 c18 -63 18 -64 -44 -64 -56 0 -56 0 -50 28 4 15 16
53 28 84 l22 58 16 -33 c9 -17 21 -51 28 -73z"/>
<path d="M7569 5052 c-10 -20 -22 -54 -29 -75 -7 -22 -18 -51 -26 -65 -8 -15
-14 -33 -14 -40 0 -7 -11 -39 -25 -72 -30 -72 -30 -72 -3 -68 14 2 25 14 30
33 22 71 26 75 92 75 34 0 66 -4 73 -8 7 -4 22 -29 33 -55 15 -33 27 -47 40
-47 25 0 25 1 1 53 -11 24 -23 55 -26 70 -4 15 -16 44 -26 64 -10 21 -19 44
-19 53 -1 8 -9 33 -20 55 -11 22 -19 46 -20 53 0 6 -10 12 -22 12 -17 0 -28
-11 -39 -38z m61 -83 c7 -27 16 -52 21 -55 5 -3 9 -14 9 -25 0 -17 -7 -19 -60
-19 l-60 0 6 27 c4 15 13 38 20 52 8 14 17 41 20 59 9 44 28 27 44 -39z"/>
<path d="M9379 5063 c-16 -45 -50 -134 -69 -183 -10 -25 -27 -69 -38 -97 l-20
-53 21 0 c21 0 47 37 47 66 0 29 31 44 94 44 71 0 77 -4 95 -67 9 -32 17 -43
31 -43 11 0 20 4 20 8 0 13 -32 104 -47 131 -7 15 -13 33 -13 41 0 9 -6 24
-14 35 -7 11 -16 34 -20 50 -22 90 -66 124 -87 68z m41 -44 c0 -5 8 -29 19
-52 10 -23 21 -54 25 -69 l6 -28 -60 0 c-33 0 -60 3 -60 8 0 4 12 39 25 77 14
39 25 71 25 73 0 1 5 2 10 2 6 0 10 -5 10 -11z"/>
<path d="M10200 4910 l0 -180 60 0 c68 0 109 17 134 54 25 40 20 80 -15 115
-28 28 -29 32 -15 47 38 38 30 109 -14 131 -14 7 -53 13 -87 13 l-63 0 0 -180z
m135 130 c19 -16 19 -50 -1 -78 -12 -17 -25 -22 -60 -22 l-44 0 0 53 c0 30 3
57 8 61 10 11 80 0 97 -14z m13 -159 c28 -23 28 -61 2 -89 -16 -17 -32 -22
-70 -22 l-50 0 0 65 0 65 48 0 c33 0 56 -6 70 -19z"/>
<path d="M11100 4910 l0 -180 68 0 c55 0 74 4 103 25 56 37 59 115 6 158 -21
17 -21 18 -4 31 10 8 21 32 24 54 5 34 1 45 -20 66 -23 23 -34 26 -102 26
l-75 0 0 -180z m149 125 c9 -9 11 -24 7 -48 -7 -37 -24 -47 -83 -47 l-33 0 0
53 c0 30 3 57 8 61 10 11 85 -3 101 -19z m5 -151 c9 -8 16 -31 16 -49 0 -47
-22 -65 -81 -65 l-49 0 0 65 0 65 49 0 c32 0 55 -6 65 -16z"/>
<path d="M12000 4909 l0 -181 81 4 c77 3 82 5 110 36 41 45 40 94 -2 133 -28
26 -29 30 -15 45 38 37 30 109 -14 131 -14 7 -55 13 -92 13 l-68 0 0 -181z
m123 140 c33 -9 37 -14 37 -41 0 -46 -25 -68 -77 -68 l-43 0 0 54 c0 67 12 75
83 55z m37 -171 c11 -12 20 -31 20 -43 0 -39 -36 -65 -90 -65 l-50 0 0 65 0
65 50 0 c38 0 54 -5 70 -22z"/>
<path d="M12880 4909 l0 -181 81 4 c77 3 82 5 110 36 40 45 40 94 -2 133 l-30
28 20 23 c31 33 28 91 -5 117 -22 17 -41 21 -100 21 l-74 0 0 -181z m121 141
c45 -13 56 -48 27 -85 -15 -20 -29 -25 -64 -25 l-44 0 0 54 c0 67 12 75 81 56z
m39 -170 c11 -11 20 -31 20 -45 0 -41 -33 -65 -90 -65 l-50 0 0 65 0 65 50 0
c37 0 55 -5 70 -20z"/>
<path d="M13800 4909 l0 -181 73 4 c84 4 123 26 133 75 8 44 -4 91 -26 98 -19
6 -36 35 -20 35 12 0 40 53 40 75 0 9 -13 30 -29 46 -27 27 -35 29 -100 29
l-71 0 0 -181z m117 140 c77 -29 45 -109 -44 -109 l-43 0 0 54 c0 66 22 80 87
55z m31 -165 c28 -20 29 -67 1 -95 -16 -16 -30 -19 -67 -17 l-47 3 -3 49 c-2
27 -1 55 2 62 7 19 86 18 114 -2z"/>
<path d="M1800 4045 l0 -595 455 0 455 0 0 -580 0 -580 -455 0 -455 0 2 -212
3 -213 38 -3 37 -3 0 165 0 166 845 0 845 0 0 -166 0 -165 38 3 37 3 3 163 2
162 850 0 850 0 0 -165 0 -165 35 0 35 0 0 165 0 165 850 0 850 0 2 -162 3
-163 38 -3 37 -3 0 165 0 166 850 0 850 0 2 -162 3 -163 35 0 35 0 3 163 2
162 845 0 845 0 0 -165 0 -165 35 0 35 0 2 162 3 163 847 3 848 2 2 -162 3
-163 35 0 35 0 3 163 2 162 850 0 850 0 0 -166 0 -165 38 3 37 3 3 206 2 206
-37 7 c-21 3 -1227 6 -2680 6 l-2643 0 0 580 0 580 455 0 455 0 0 595 0 595
-455 0 -455 0 0 -595 0 -595 -440 0 -440 0 0 595 0 595 -455 0 -455 0 0 -595
0 -595 -435 0 -435 0 0 595 0 595 -455 0 -455 0 0 -595 0 -595 -440 0 -440 0
0 595 0 595 -455 0 -455 0 0 -595 0 -595 -435 0 -435 0 0 595 0 595 -455 0
-455 0 0 -595z m2690 -1175 l0 -580 -435 0 -435 0 0 580 0 580 435 0 435 0 0
-580z m1780 0 l0 -580 -435 0 -435 0 0 580 0 580 435 0 435 0 0 -580z m1760 0
l0 -580 -425 0 -425 0 0 580 0 580 425 0 425 0 0 -580z"/>
<path d="M613 4259 c-22 -11 -54 -39 -70 -61 -24 -36 -28 -51 -28 -113 0 -64
3 -75 29 -106 51 -62 136 -85 196 -54 36 19 42 51 8 40 -55 -17 -86 -16 -126
4 -46 24 -59 41 -68 98 -15 97 49 178 136 171 25 -3 53 -8 63 -12 26 -12 22
19 -5 38 -31 22 -85 20 -135 -5z"/>
<path d="M840 4095 c0 -155 2 -185 15 -185 11 0 15 17 17 73 l3 72 60 6 c49 6
64 12 87 38 30 33 36 78 19 124 -13 34 -68 57 -140 57 l-61 0 0 -185z m150
125 c11 -11 20 -33 20 -50 0 -46 -31 -70 -90 -70 l-50 0 0 63 c0 35 3 67 7 70
15 16 93 7 113 -13z"/>
<path d="M1120 4140 c0 -156 7 -180 57 -210 43 -25 83 -25 132 -1 51 26 65 78
66 231 0 101 -2 115 -17 118 -16 3 -18 -8 -18 -121 0 -129 -8 -163 -46 -192
-44 -33 -114 -8 -133 47 -6 17 -11 84 -11 149 0 99 -3 119 -15 119 -13 0 -15
-22 -15 -140z"/>
<path d="M570 2870 c0 -198 2 -230 15 -230 13 0 15 32 15 230 0 198 -2 230
-15 230 -13 0 -15 -32 -15 -230z"/>
<path d="M260 2910 l0 -150 125 0 c118 0 125 1 125 20 0 19 -7 20 -105 20
l-105 0 0 110 0 110 95 0 c88 0 95 1 95 20 0 19 -7 20 -115 20 l-115 0 0 -150z"/>
<path d="M900 3039 c0 -50 -77 -129 -142 -144 -30 -8 -33 -12 -18 -35 8 -13
17 -10 65 15 31 17 69 44 85 62 l28 31 32 -33 c18 -19 56 -45 84 -59 47 -24
51 -24 67 -8 15 16 14 18 -15 27 -88 28 -146 86 -146 144 0 14 -6 21 -20 21
-14 0 -20 -7 -20 -21z"/>
<path d="M1250 3045 c0 -12 20 -15 119 -15 66 0 126 -3 135 -6 12 -4 16 -20
16 -55 l0 -48 -142 -3 c-127 -3 -143 -5 -146 -20 -3 -16 9 -18 137 -18 l141 0
0 -65 0 -65 -160 0 c-153 0 -160 -1 -160 -20 0 -19 7 -20 215 -20 208 0 215 1
215 20 0 17 -7 20 -39 20 l-39 0 6 155 5 155 -152 0 c-128 0 -151 -2 -151 -15z"/>
<path d="M700 2730 c0 -19 7 -20 215 -20 208 0 215 1 215 20 0 19 -7 20 -215
20 -208 0 -215 -1 -215 -20z"/>
<path d="M1771 1689 c-35 -37 -46 -89 -39 -191 8 -107 54 -153 134 -132 28 7
42 19 60 52 47 84 26 259 -35 292 -39 21 -89 12 -120 -21z m122 -41 c30 -41
31 -175 1 -215 -23 -31 -43 -38 -79 -29 -24 6 -55 75 -55 122 0 43 22 124 37
140 23 23 72 14 96 -18z"/>
<path d="M3420 1707 c-14 -7 -26 -22 -28 -35 -3 -21 -2 -21 25 -7 51 27 108
16 118 -22 10 -43 -12 -85 -69 -128 -61 -46 -96 -93 -96 -130 l0 -25 111 0
c100 0 110 2 107 18 -3 14 -17 17 -91 20 -53 2 -87 7 -87 13 0 13 50 62 104
103 70 53 84 142 29 186 -29 23 -85 26 -123 7z"/>
<path d="M3687 1700 c-55 -44 -73 -178 -36 -267 32 -78 102 -98 159 -45 61 55
64 249 4 308 -30 31 -91 32 -127 4z m113 -52 c41 -67 18 -237 -33 -246 -35 -7
-67 8 -82 38 -21 40 -20 152 1 193 20 39 31 47 67 47 20 0 32 -8 47 -32z"/>
<path d="M5260 1674 c-24 -46 -54 -89 -110 -154 -51 -60 -43 -70 55 -70 l85 0
0 -45 c0 -33 4 -45 14 -45 10 0 16 14 18 43 2 35 7 43 26 45 33 5 30 42 -4 42
l-25 0 3 115 c3 109 2 115 -17 115 -14 0 -28 -15 -45 -46z m30 -109 l0 -75
-55 0 c-30 0 -55 4 -55 9 0 6 10 21 23 35 12 14 35 43 50 66 16 22 30 40 33
40 2 0 4 -34 4 -75z"/>
<path d="M5478 1712 c-9 -4 -27 -20 -40 -37 -21 -27 -23 -40 -23 -135 0 -94 2
-108 23 -137 41 -57 120 -57 162 -1 20 27 25 48 28 119 5 100 -8 149 -45 179
-25 20 -72 25 -105 12z m88 -46 c17 -13 19 -27 19 -126 0 -99 -2 -113 -19
-126 -31 -23 -72 -17 -95 12 -18 22 -21 41 -21 114 0 73 3 92 21 114 23 29 64
35 95 12z"/>
<path d="M7004 1709 c-11 -6 -33 -29 -47 -52 -24 -37 -27 -50 -27 -131 0 -77
3 -95 23 -123 14 -21 33 -35 54 -39 81 -15 133 30 133 115 0 43 -4 53 -31 75
-38 33 -90 35 -120 5 -11 -11 -23 -18 -25 -16 -11 11 19 91 42 114 21 21 33
24 70 21 40 -3 44 -1 42 17 -2 16 -11 20 -48 22 -25 1 -54 -3 -66 -8z m89
-200 c14 -20 17 -35 12 -58 -8 -39 -40 -56 -89 -47 -30 6 -36 11 -42 41 -8 45
2 82 24 88 39 11 75 2 95 -24z"/>
<path d="M7231 1694 c-66 -59 -66 -253 0 -309 45 -37 93 -34 134 9 34 37 45
71 45 145 0 119 -30 170 -102 178 -39 5 -49 2 -77 -23z m115 -35 c16 -18 19
-37 19 -119 0 -82 -3 -101 -19 -119 -24 -26 -70 -27 -95 -2 -41 41 -35 226 7
251 28 16 68 11 88 -11z"/>
<path d="M8755 1708 c-49 -28 -61 -95 -24 -134 l20 -22 -30 -33 c-59 -64 -26
-146 63 -156 57 -7 97 9 119 46 25 42 21 75 -12 110 -28 30 -28 31 -10 52 11
13 19 37 19 60 0 67 -84 112 -145 77z m93 -40 c7 -7 12 -26 12 -43 0 -39 -16
-55 -55 -55 -39 0 -55 16 -55 55 0 39 16 55 55 55 17 0 36 -5 43 -12z m9 -160
c45 -42 15 -108 -50 -108 -70 0 -101 59 -55 107 28 30 74 30 105 1z"/>
<path d="M9023 1710 c-25 -10 -39 -33 -59 -98 -18 -61 -18 -97 2 -158 28 -87
88 -116 155 -77 23 14 34 32 49 84 24 79 24 82 5 156 -23 89 -78 123 -152 93z
m82 -38 c24 -18 40 -69 40 -131 0 -107 -33 -154 -97 -138 -58 15 -77 178 -29
246 22 31 62 41 86 23z"/>
<path d="M10439 1701 c-13 -10 -34 -21 -46 -25 -22 -7 -37 -32 -27 -47 3 -5
20 -2 40 6 l34 14 0 -145 c0 -137 1 -144 20 -144 19 0 20 7 20 180 0 99 -4
180 -9 180 -4 0 -19 -8 -32 -19z"/>
<path d="M10664 1710 c-83 -33 -86 -296 -5 -340 39 -20 90 -12 121 20 34 35
45 89 38 198 -5 69 -8 78 -37 104 -32 29 -74 36 -117 18z m92 -44 c17 -13 19
-27 19 -126 0 -99 -2 -113 -19 -126 -31 -23 -72 -17 -95 12 -18 22 -21 41 -21
114 0 73 3 92 21 114 23 29 64 35 95 12z"/>
<path d="M10932 1713 c-7 -3 -25 -24 -39 -47 -24 -36 -27 -52 -27 -126 0 -62
4 -94 17 -117 37 -69 105 -84 157 -34 74 70 58 303 -23 325 -26 7 -67 7 -85
-1z m78 -43 c56 -30 52 -236 -5 -262 -67 -30 -110 31 -103 147 7 101 49 147
108 115z"/>
<path d="M12224 1709 c-3 -6 -26 -20 -50 -31 -30 -13 -44 -25 -44 -38 0 -24 1
-24 47 -5 19 8 37 15 39 15 2 0 4 -65 4 -145 0 -122 2 -145 15 -145 13 0 15
27 15 180 0 166 -5 202 -26 169z"/>
<path d="M12420 1707 c-14 -7 -26 -22 -28 -35 -3 -21 -2 -21 25 -7 58 30 110
17 119 -30 8 -45 -10 -73 -79 -130 -59 -48 -77 -76 -77 -121 0 -24 0 -24 106
-24 95 0 105 2 102 18 -3 14 -16 17 -86 20 -109 4 -110 14 -6 100 68 56 89 95
80 146 -12 65 -90 96 -156 63z"/>
<path d="M12681 1689 c-35 -37 -46 -89 -39 -191 8 -107 54 -153 134 -132 28 7
42 19 60 52 47 84 26 259 -35 292 -39 21 -89 12 -120 -21z m122 -41 c30 -41
31 -175 1 -215 -23 -31 -43 -38 -79 -29 -24 6 -55 75 -55 122 0 43 22 124 37
140 23 23 72 14 96 -18z"/>
<path d="M13988 1701 c-13 -11 -37 -23 -51 -26 -20 -5 -27 -13 -27 -31 0 -24
0 -24 36 -9 20 8 38 15 40 15 2 0 4 -65 4 -145 0 -138 1 -145 20 -145 19 0 20
7 20 180 0 99 -4 180 -9 180 -4 0 -19 -9 -33 -19z"/>
<path d="M14274 1698 c-10 -31 -66 -117 -108 -163 -20 -22 -36 -50 -36 -62 0
-22 4 -23 80 -23 l80 0 0 -45 c0 -38 3 -45 20 -45 17 0 20 7 20 45 0 41 2 45
25 45 18 0 25 5 25 20 0 15 -7 20 -25 20 l-25 0 0 115 0 115 -24 0 c-17 0 -27
-7 -32 -22z m16 -138 l0 -70 -55 0 c-30 0 -55 4 -55 8 0 5 11 19 25 32 14 13
25 29 25 37 0 7 5 13 10 13 6 0 15 11 20 25 17 46 30 27 30 -45z"/>
<path d="M14467 1700 c-76 -60 -73 -270 4 -324 56 -39 129 -6 155 69 31 89 6
237 -45 264 -31 17 -86 13 -114 -9z m113 -52 c41 -67 18 -237 -33 -246 -35 -7
-67 8 -82 38 -21 40 -20 152 1 193 20 39 31 47 67 47 20 0 32 -8 47 -32z"/>
<path d="M6960 535 c0 -218 1 -225 20 -225 19 0 20 7 20 225 0 218 -1 225 -20
225 -19 0 -20 -7 -20 -225z"/>
<path d="M7432 593 c2 -122 6 -167 16 -171 9 -3 12 17 12 77 l0 81 35 0 c28 0
35 4 35 20 0 16 -7 20 -35 20 l-35 0 0 70 c0 56 -3 70 -15 70 -13 0 -15 -23
-13 -167z"/>
<path d="M6740 693 c0 -79 -27 -155 -75 -210 -27 -31 -41 -54 -36 -62 6 -9 16
-4 37 16 39 38 84 99 84 114 0 8 15 -9 33 -37 37 -58 85 -106 98 -98 15 9 11
17 -26 55 -50 54 -85 139 -85 210 0 46 -3 59 -15 59 -11 0 -15 -12 -15 -47z"/>
<path d="M7140 720 c0 -18 7 -20 75 -20 80 0 85 -4 66 -52 -13 -34 -87 -103
-132 -123 -41 -19 -49 -32 -25 -41 44 -17 177 107 200 186 9 29 13 56 10 61
-3 5 -48 9 -100 9 -87 0 -94 -1 -94 -20z"/>
<path d="M7182 393 l3 -68 148 -3 c142 -2 147 -2 147 18 0 19 -6 20 -130 20
l-130 0 0 50 c0 44 -3 50 -20 50 -19 0 -21 -5 -18 -67z"/>
</g>
</svg>
