<?xml version="1.0" standalone="no"?>
<!DOCTYPE svg PUBLIC "-//W3C//DTD SVG 20010904//EN"
 "http://www.w3.org/TR/2001/REC-SVG-20010904/DTD/svg10.dtd">
<svg version="1.0" xmlns="http://www.w3.org/2000/svg"
 width="1360.000000pt" height="207.000000pt" viewBox="0 0 1360.000000 207.000000"
 preserveAspectRatio="xMidYMid meet">

<g transform="translate(0.000000,207.000000) scale(0.100000,-0.100000)"
fill="#FFFFFF" stroke="none">
<path d="M1253 1939 c-20 -20 -23 -21 -38 -5 -22 21 -48 20 -68 -2 -23 -25
-21 -68 3 -92 25 -25 55 -26 77 -1 16 19 17 19 35 -5 37 -47 98 -15 98 51 0
66 -63 97 -107 54z m85 -11 c7 -7 12 -26 12 -43 0 -55 -49 -75 -85 -35 -17 19
-18 22 -2 55 18 37 51 47 75 23z m-124 -13 c18 -18 9 -53 -17 -69 -36 -23 -74
36 -47 70 16 18 45 18 64 -1z"/>
<path d="M12120 1915 c0 -32 -2 -35 -30 -35 -23 0 -30 -4 -30 -20 0 -16 7 -20
30 -20 28 0 30 -3 30 -35 0 -28 4 -35 20 -35 16 0 20 7 20 35 0 32 2 35 30 35
23 0 30 4 30 20 0 16 -7 20 -30 20 -28 0 -30 3 -30 35 0 28 -4 35 -20 35 -16
0 -20 -7 -20 -35z"/>
<path d="M950 1900 c0 -20 5 -21 78 -18 60 2 77 6 77 18 0 12 -17 16 -77 18
-73 3 -78 2 -78 -18z"/>
<path d="M12369 1904 c-8 -9 -23 -35 -34 -58 -25 -51 -64 -58 -79 -14 -16 46
37 80 73 46 11 -11 13 -10 9 2 -3 8 -17 19 -32 25 -24 8 -31 6 -47 -14 -25
-30 -24 -66 1 -91 25 -25 55 -25 80 0 19 19 20 19 30 0 23 -43 100 -28 100 19
0 11 -4 9 -16 -7 -19 -28 -58 -28 -78 -1 -16 23 -12 43 12 72 21 23 48 21 66
-5 13 -18 16 -19 16 -6 0 21 -37 48 -66 48 -12 0 -28 -7 -35 -16z"/>
<path d="M3250 1680 c0 -113 1 -120 20 -120 19 0 20 7 20 120 0 113 -1 120
-20 120 -19 0 -20 -7 -20 -120z"/>
<path d="M3340 1775 c0 -18 5 -25 20 -25 15 0 20 7 20 25 0 18 -5 25 -20 25
-15 0 -20 -7 -20 -25z"/>
<path d="M3847 1793 c-4 -3 -7 -21 -7 -39 0 -32 -1 -33 -33 -27 -28 4 -37 1
-55 -22 -55 -69 0 -170 74 -136 15 6 24 7 24 1 0 -6 9 -10 20 -10 19 0 20 7
20 120 0 110 -2 120 -18 120 -10 0 -22 -3 -25 -7z m-12 -148 c0 -35 -3 -40
-24 -40 -28 0 -42 30 -30 63 6 17 15 22 31 20 20 -3 23 -9 23 -43z"/>
<path d="M10640 1680 c0 -113 1 -120 20 -120 19 0 20 7 20 120 0 113 -1 120
-20 120 -19 0 -20 -7 -20 -120z"/>
<path d="M10730 1775 c0 -18 5 -25 20 -25 15 0 20 7 20 25 0 18 -5 25 -20 25
-15 0 -20 -7 -20 -25z"/>
<path d="M11237 1793 c-4 -3 -7 -21 -7 -39 0 -32 -1 -33 -33 -27 -28 4 -37 1
-55 -22 -55 -69 0 -170 74 -136 15 6 24 7 24 1 0 -6 9 -10 20 -10 19 0 20 7
20 120 0 110 -2 120 -18 120 -10 0 -22 -3 -25 -7z m-12 -148 c0 -36 -2 -40
-25 -40 -20 0 -26 6 -28 28 -5 42 5 59 30 55 20 -3 23 -9 23 -43z"/>
<path d="M2230 1674 c0 -105 2 -115 18 -112 15 3 17 15 16 91 0 48 1 87 2 87
2 0 24 -40 49 -90 39 -77 49 -90 70 -90 l25 0 0 115 c0 108 -1 115 -20 115
-18 0 -20 -7 -21 -87 l-1 -88 -40 88 c-38 79 -44 87 -70 87 l-28 0 0 -116z"/>
<path d="M7480 1676 l0 -116 50 0 c56 0 104 20 120 49 5 11 10 42 10 70 0 77
-28 104 -114 109 l-66 4 0 -116z m114 59 c49 -49 21 -135 -45 -135 l-29 0 0
75 0 75 29 0 c16 0 36 -7 45 -15z"/>
<path d="M9620 1675 c0 -106 2 -116 18 -113 15 3 17 15 16 91 0 48 1 87 2 87
2 0 24 -40 49 -90 39 -77 49 -90 70 -90 l25 0 0 115 c0 108 -1 115 -20 115
-18 0 -20 -7 -21 -87 l0 -88 -42 85 c-36 73 -46 85 -69 88 l-28 3 0 -116z"/>
<path d="M4820 1656 l0 -116 50 0 c56 0 104 20 120 49 5 11 10 42 10 70 0 77
-28 104 -114 109 l-66 4 0 -116z m114 59 c49 -49 21 -135 -45 -135 l-29 0 0
75 0 75 29 0 c16 0 36 -7 45 -15z"/>
<path d="M7340 1715 c0 -32 -2 -35 -30 -35 -23 0 -30 -4 -30 -20 0 -16 7 -20
30 -20 28 0 30 -3 30 -35 0 -28 4 -35 20 -35 16 0 20 7 20 35 0 32 2 35 30 35
23 0 30 4 30 20 0 16 -7 20 -30 20 -28 0 -30 3 -30 35 0 28 -4 35 -20 35 -16
0 -20 -7 -20 -35z"/>
<path d="M9480 1715 c0 -32 -2 -35 -30 -35 -23 0 -30 -4 -30 -20 0 -16 7 -20
30 -20 28 0 30 -3 30 -35 0 -28 4 -35 20 -35 16 0 20 7 20 35 0 32 2 35 30 35
23 0 30 4 30 20 0 16 -7 20 -30 20 -28 0 -30 3 -30 35 0 28 -4 35 -20 35 -16
0 -20 -7 -20 -35z"/>
<path d="M2480 1712 c-13 -10 -23 -33 -27 -59 -5 -35 -2 -45 20 -67 43 -43
107 -35 133 16 20 39 11 92 -19 113 -29 20 -80 19 -107 -3z m85 -67 c0 -36 -3
-40 -27 -43 -21 -3 -30 2 -39 21 -16 36 4 69 39 65 24 -3 27 -7 27 -43z"/>
<path d="M2652 1648 c3 -75 5 -83 23 -83 17 0 21 8 25 60 4 53 8 60 28 63 14
2 22 10 22 23 0 22 -29 26 -48 7 -9 -9 -12 -9 -12 0 0 7 -9 12 -20 12 -20 0
-21 -5 -18 -82z"/>
<path d="M2780 1645 c0 -78 2 -85 20 -85 18 0 20 7 20 54 0 56 17 83 45 72 11
-4 15 -21 15 -66 0 -58 1 -61 23 -58 19 3 22 10 25 60 2 40 7 58 19 62 28 11
43 -13 43 -70 0 -47 2 -54 20 -54 18 0 20 7 20 63 0 92 -33 127 -90 97 -14 -8
-25 -7 -40 2 -15 10 -27 10 -50 1 -16 -6 -30 -7 -30 -2 0 5 -9 9 -20 9 -18 0
-20 -7 -20 -85z"/>
<path d="M3088 1723 c-10 -2 -18 -13 -18 -23 0 -16 7 -18 41 -17 26 1 44 -3
46 -10 3 -9 -6 -13 -26 -13 -28 0 -71 -29 -71 -48 0 -4 7 -17 15 -29 13 -19
24 -22 70 -21 l55 2 0 72 c0 62 -3 75 -19 84 -20 10 -61 12 -93 3z m70 -105
c-7 -20 -48 -23 -48 -4 0 11 9 16 26 16 16 0 24 -5 22 -12z"/>
<path d="M3340 1645 c0 -78 2 -85 20 -85 18 0 20 7 20 85 0 78 -2 85 -20 85
-18 0 -20 -7 -20 -85z"/>
<path d="M3420 1710 c0 -16 7 -20 30 -20 l31 0 -31 -44 c-16 -25 -30 -54 -30
-65 0 -19 6 -21 55 -21 48 0 55 3 55 19 0 15 -8 21 -30 23 l-30 3 30 45 c45
68 41 80 -25 80 -48 0 -55 -2 -55 -20z"/>
<path d="M3575 1705 c-54 -53 -16 -145 59 -145 47 0 66 9 66 31 0 16 -6 18
-43 13 -32 -5 -46 -2 -56 10 -12 14 -8 16 43 16 l56 0 0 34 c0 64 -78 89 -125
41z m83 -32 c2 -9 -7 -13 -27 -13 -30 0 -39 9 -24 24 11 10 46 3 51 -11z"/>
<path d="M7715 1705 c-54 -53 -16 -145 59 -145 47 0 66 9 66 30 0 15 -8 18
-46 17 -30 -1 -48 3 -51 11 -3 8 10 12 46 12 l51 0 0 34 c0 64 -78 89 -125 41z
m83 -32 c2 -9 -7 -13 -27 -13 -30 0 -39 9 -24 24 11 10 46 3 51 -11z"/>
<path d="M7880 1645 c0 -78 2 -85 20 -85 18 0 20 7 20 54 0 60 19 88 48 69 12
-7 18 -27 20 -67 3 -48 6 -56 22 -56 18 0 20 7 20 68 0 54 -4 72 -18 85 -21
19 -45 21 -73 7 -13 -7 -19 -7 -19 0 0 5 -9 10 -20 10 -18 0 -20 -7 -20 -85z"/>
<path d="M8102 1723 c-23 -9 -44 -64 -37 -99 18 -97 165 -79 165 21 0 63 -66
103 -128 78z m79 -54 c18 -34 -4 -71 -39 -67 -21 2 -28 9 -30 31 -2 16 -1 35
2 43 8 22 54 17 67 -7z"/>
<path d="M8270 1645 c0 -78 2 -85 20 -85 16 0 19 8 22 58 3 48 7 59 26 67 12
5 22 18 22 27 0 20 -13 23 -41 8 -13 -7 -19 -7 -19 0 0 5 -7 10 -15 10 -12 0
-15 -16 -15 -85z"/>
<path d="M8392 1648 c3 -75 5 -83 23 -83 17 0 21 8 25 60 4 48 9 61 24 63 26
5 36 -15 36 -75 0 -46 3 -53 20 -53 16 0 19 8 22 56 2 42 8 60 21 68 25 16 37
-7 37 -71 0 -46 3 -53 20 -53 18 0 20 7 20 69 0 50 -4 74 -16 85 -18 19 -55
21 -72 4 -9 -9 -18 -8 -37 2 -20 11 -33 11 -56 3 -16 -6 -29 -7 -29 -2 0 5 -9
9 -20 9 -20 0 -21 -5 -18 -82z"/>
<path d="M9870 1712 c-13 -10 -23 -33 -27 -59 -5 -35 -2 -45 20 -67 43 -43
107 -35 133 16 20 39 11 92 -19 113 -29 20 -80 19 -107 -3z m85 -67 c0 -36 -3
-40 -27 -43 -21 -3 -30 2 -39 21 -16 36 4 69 39 65 24 -3 27 -7 27 -43z"/>
<path d="M10042 1648 c3 -75 5 -83 23 -83 17 0 21 8 25 60 4 53 8 60 28 63 14
2 22 10 22 23 0 22 -29 26 -48 7 -9 -9 -12 -9 -12 0 0 7 -9 12 -20 12 -20 0
-21 -5 -18 -82z"/>
<path d="M10170 1645 c0 -78 2 -85 20 -85 18 0 20 7 20 54 0 56 17 83 45 72
11 -4 15 -21 15 -66 0 -58 1 -61 23 -58 19 3 22 10 25 60 2 40 7 58 19 62 28
11 43 -13 43 -70 0 -47 2 -54 20 -54 18 0 20 7 20 68 0 54 -4 72 -18 85 -21
19 -45 21 -72 7 -14 -8 -25 -7 -40 2 -15 10 -27 10 -50 1 -16 -6 -30 -7 -30
-2 0 5 -9 9 -20 9 -18 0 -20 -7 -20 -85z"/>
<path d="M10478 1723 c-10 -2 -18 -13 -18 -23 0 -16 7 -18 41 -17 26 1 44 -3
46 -10 3 -9 -6 -13 -26 -13 -28 0 -71 -29 -71 -48 0 -4 7 -17 15 -29 13 -19
24 -22 70 -21 l55 2 0 72 c0 62 -3 75 -19 84 -20 10 -61 12 -93 3z m70 -105
c-7 -20 -48 -23 -48 -4 0 11 9 16 26 16 16 0 24 -5 22 -12z"/>
<path d="M10730 1645 c0 -78 2 -85 20 -85 18 0 20 7 20 85 0 78 -2 85 -20 85
-18 0 -20 -7 -20 -85z"/>
<path d="M10810 1710 c0 -16 7 -20 30 -20 l31 0 -31 -44 c-16 -25 -30 -54 -30
-65 0 -19 6 -21 55 -21 48 0 55 3 55 19 0 15 -8 21 -30 23 l-30 3 30 45 c45
68 41 80 -25 80 -48 0 -55 -2 -55 -20z"/>
<path d="M10965 1705 c-54 -53 -16 -145 59 -145 46 0 66 9 66 29 0 14 -9 17
-47 17 -28 -1 -48 4 -50 12 -3 8 10 12 46 12 l51 0 0 34 c0 64 -78 89 -125 41z
m83 -32 c2 -9 -7 -13 -27 -13 -30 0 -39 9 -24 24 11 10 46 3 51 -11z"/>
<path d="M5055 1685 c-54 -53 -16 -145 59 -145 47 0 66 9 66 30 0 15 -8 18
-46 17 -30 -1 -48 3 -51 11 -3 8 10 12 46 12 l51 0 0 34 c0 64 -78 89 -125 41z
m83 -32 c2 -9 -7 -13 -27 -13 -30 0 -39 9 -24 24 11 10 46 3 51 -11z"/>
<path d="M5220 1625 c0 -78 2 -85 20 -85 18 0 20 7 20 54 0 60 19 88 48 69 12
-7 18 -27 20 -67 3 -48 6 -56 22 -56 18 0 20 7 20 63 0 92 -33 127 -91 97 -13
-7 -19 -7 -19 0 0 5 -9 10 -20 10 -18 0 -20 -7 -20 -85z"/>
<path d="M5442 1703 c-23 -9 -44 -64 -37 -99 18 -97 165 -79 165 21 0 63 -66
103 -128 78z m79 -54 c18 -34 -4 -71 -39 -67 -21 2 -28 9 -30 31 -2 16 -1 35
2 43 8 22 54 17 67 -7z"/>
<path d="M5610 1625 c0 -78 2 -85 20 -85 16 0 19 8 22 58 3 48 7 59 26 67 12
5 22 18 22 27 0 20 -13 23 -41 8 -13 -7 -19 -7 -19 0 0 5 -7 10 -15 10 -12 0
-15 -16 -15 -85z"/>
<path d="M5732 1628 c3 -75 5 -83 23 -83 17 0 20 8 23 58 2 40 8 60 18 64 27
10 44 -17 44 -73 0 -47 3 -54 20 -54 16 0 19 8 22 56 2 42 8 60 21 68 25 16
37 -7 37 -71 0 -46 3 -53 20 -53 18 0 20 7 20 69 0 50 -4 74 -16 85 -18 19
-55 21 -72 4 -9 -9 -18 -8 -37 2 -20 11 -33 11 -56 3 -16 -6 -29 -7 -29 -2 0
5 -9 9 -20 9 -20 0 -21 -5 -18 -82z"/>
<path d="M2030 1660 c0 -18 7 -20 80 -20 73 0 80 2 80 20 0 18 -7 20 -80 20
-73 0 -80 -2 -80 -20z"/>
<path d="M4620 1640 c0 -18 7 -20 80 -20 73 0 80 2 80 20 0 18 -7 20 -80 20
-73 0 -80 -2 -80 -20z"/>
<path d="M1050 1360 c0 -233 1 -240 20 -240 19 0 20 7 20 110 l0 110 220 0
220 0 0 -110 c0 -103 1 -110 20 -110 19 0 20 7 20 110 l0 110 1480 0 1480 0 0
-110 c0 -103 1 -110 20 -110 19 0 20 7 20 110 l0 110 940 0 c620 0 940 -3 940
-10 0 -5 9 -10 20 -10 11 0 20 5 20 10 0 6 60 10 160 10 l160 0 0 -110 c0
-103 1 -110 20 -110 19 0 20 7 20 110 l0 110 160 0 c100 0 160 -4 160 -10 0
-5 9 -10 20 -10 11 0 20 5 20 10 0 7 300 10 880 10 l880 0 0 -110 c0 -103 1
-110 20 -110 19 0 20 7 20 110 l0 110 1600 0 1600 0 0 -110 c0 -103 1 -110 20
-110 19 0 20 7 20 110 l0 110 160 0 160 0 0 -110 c0 -103 1 -110 20 -110 19 0
20 7 20 240 0 233 -1 240 -20 240 -19 0 -20 -7 -20 -110 l0 -110 -160 0 -160
0 0 110 c0 103 -1 110 -20 110 -19 0 -20 -7 -20 -110 l0 -110 -1600 0 -1600 0
0 110 c0 103 -1 110 -20 110 -19 0 -20 -7 -20 -110 l0 -110 -1060 0 -1060 0 0
110 c0 103 -1 110 -20 110 -19 0 -20 -7 -20 -110 l0 -110 -1120 0 -1120 0 0
110 c0 103 -1 110 -20 110 -19 0 -20 -7 -20 -110 l0 -110 -1480 0 -1480 0 0
110 c0 103 -1 110 -20 110 -19 0 -20 -7 -20 -110 l0 -110 -220 0 -220 0 0 110
c0 103 -1 110 -20 110 -19 0 -20 -7 -20 -240z"/>
<path d="M6450 1580 c0 -13 7 -20 20 -20 13 0 20 7 20 20 0 13 -7 20 -20 20
-13 0 -20 -7 -20 -20z"/>
<path d="M7170 1580 c0 -13 7 -20 20 -20 13 0 20 7 20 20 0 13 -7 20 -20 20
-13 0 -20 -7 -20 -20z"/>
<path d="M6450 1500 c0 -13 7 -20 20 -20 13 0 20 7 20 20 0 13 -7 20 -20 20
-13 0 -20 -7 -20 -20z"/>
<path d="M7170 1500 c0 -13 7 -20 20 -20 13 0 20 7 20 20 0 13 -7 20 -20 20
-13 0 -20 -7 -20 -20z"/>
<path d="M6450 1420 c0 -13 7 -20 20 -20 13 0 20 7 20 20 0 13 -7 20 -20 20
-13 0 -20 -7 -20 -20z"/>
<path d="M7170 1420 c0 -13 7 -20 20 -20 13 0 20 7 20 20 0 13 -7 20 -20 20
-13 0 -20 -7 -20 -20z"/>
<path d="M6450 1260 c0 -13 7 -20 20 -20 13 0 20 7 20 20 0 13 -7 20 -20 20
-13 0 -20 -7 -20 -20z"/>
<path d="M7170 1260 c0 -13 7 -20 20 -20 13 0 20 7 20 20 0 13 -7 20 -20 20
-13 0 -20 -7 -20 -20z"/>
<path d="M6651 1213 c-46 -30 -51 -36 -37 -46 14 -11 -1 -40 -125 -247 -78
-129 -144 -242 -146 -251 -3 -9 2 -19 10 -22 12 -4 53 57 162 240 119 198 150
244 165 240 16 -4 19 4 25 55 4 32 6 61 4 63 -2 1 -28 -13 -58 -32z"/>
<path d="M6953 1205 c4 -26 7 -56 7 -65 0 -13 6 -17 19 -13 16 4 44 -37 166
-240 108 -181 151 -244 162 -240 8 3 13 13 10 22 -2 9 -68 122 -146 251 -120
200 -139 237 -126 246 18 13 15 16 -54 59 l-44 27 6 -47z"/>
<path d="M6450 1180 c0 -13 7 -20 20 -20 13 0 20 7 20 20 0 13 -7 20 -20 20
-13 0 -20 -7 -20 -20z"/>
<path d="M7170 1180 c0 -13 7 -20 20 -20 13 0 20 7 20 20 0 13 -7 20 -20 20
-13 0 -20 -7 -20 -20z"/>
<path d="M12690 726 c0 -109 1 -116 20 -116 18 0 20 7 21 88 l0 87 45 -87 c38
-75 48 -88 69 -88 l25 0 0 116 c0 105 -2 115 -17 112 -16 -3 -18 -15 -17 -91
0 -48 -1 -85 -4 -83 -2 3 -22 42 -43 88 -35 75 -41 83 -69 86 l-30 3 0 -115z"/>
<path d="M13105 827 c-3 -7 -4 -58 -3 -113 3 -85 5 -99 21 -102 15 -3 17 6 17
90 l1 93 47 -90 c40 -77 51 -90 72 -90 l25 0 3 113 c3 107 2 112 -18 112 -19
0 -20 -6 -20 -92 l-1 -93 -34 75 c-19 41 -39 82 -43 90 -12 20 -61 25 -67 7z"/>
<path d="M12938 773 c-10 -2 -18 -13 -18 -23 0 -16 7 -18 41 -17 26 1 44 -3
46 -10 3 -9 -6 -13 -26 -13 -32 0 -71 -29 -71 -53 0 -29 34 -46 88 -45 l52 1
0 73 c0 62 -3 75 -19 84 -20 10 -61 12 -93 3z m70 -105 c-7 -20 -48 -23 -48
-4 0 11 9 16 26 16 16 0 24 -5 22 -12z"/>
<path d="M347 713 c-4 -3 -7 -55 -7 -115 0 -101 1 -108 20 -108 19 0 20 7 21
93 l0 92 47 -93 c42 -83 50 -93 72 -90 25 3 25 4 28 116 3 107 2 112 -18 112
-19 0 -20 -6 -21 -92 l0 -93 -44 93 c-37 78 -47 92 -68 92 -13 0 -27 -3 -30
-7z"/>
<path d="M760 604 c0 -105 2 -115 18 -112 15 3 17 15 16 91 0 48 1 87 3 87 2
0 23 -39 46 -87 37 -75 47 -88 70 -91 l27 -3 0 115 c0 109 -1 116 -20 116 -18
0 -20 -7 -21 -87 l-1 -88 -40 88 c-38 79 -44 87 -70 87 l-28 0 0 -116z"/>
<path d="M593 653 c-7 -2 -13 -13 -13 -23 0 -15 6 -17 39 -13 29 4 39 1 44
-11 5 -12 0 -16 -18 -16 -48 0 -75 -17 -75 -49 0 -40 16 -49 83 -49 l57 1 0
63 c0 51 -4 68 -20 84 -19 19 -67 26 -97 13z m67 -108 c-7 -8 -21 -15 -31 -15
-11 0 -19 7 -19 15 0 10 10 15 31 15 27 0 30 -2 19 -15z"/>
<path d="M12570 460 c0 -173 1 -180 20 -180 17 0 20 7 20 50 l0 50 400 0 400
0 0 -50 c0 -43 3 -50 20 -50 19 0 20 7 20 180 0 173 -1 180 -20 180 -19 0 -20
-7 -20 -110 l0 -110 -400 0 -400 0 0 110 c0 103 -1 110 -20 110 -19 0 -20 -7
-20 -180z"/>
<path d="M210 350 c0 -173 1 -180 20 -180 17 0 20 7 20 50 l0 50 400 0 400 0
0 -50 c0 -43 3 -50 20 -50 19 0 20 7 20 180 0 173 -1 180 -20 180 -19 0 -20
-7 -20 -110 l0 -110 -400 0 -400 0 0 110 c0 103 -1 110 -20 110 -19 0 -20 -7
-20 -180z"/>
<path d="M6169 471 c-19 -15 -24 -30 -27 -87 -3 -59 -1 -73 18 -96 26 -34 80
-38 109 -9 40 40 40 161 1 193 -29 23 -72 23 -101 -1z m76 -96 c0 -65 -2 -70
-22 -73 -17 -3 -26 3 -33 23 -22 59 -4 128 33 123 20 -3 22 -8 22 -73z"/>
<path d="M7231 461 c-40 -40 -40 -161 -1 -193 29 -23 72 -23 101 1 19 15 24
30 27 87 3 59 1 73 -18 97 -26 33 -80 37 -109 8z m83 -59 c6 -20 6 -47 0 -70
-7 -30 -13 -37 -34 -37 -23 0 -25 4 -28 59 -4 73 2 88 30 84 15 -2 25 -13 32
-36z"/>
<path d="M7080 405 c0 -32 -2 -35 -30 -35 -23 0 -30 -4 -30 -20 0 -16 7 -20
30 -20 28 0 30 -3 30 -35 0 -28 4 -35 20 -35 16 0 20 7 20 35 0 32 2 35 30 35
23 0 30 4 30 20 0 16 -7 20 -30 20 -28 0 -30 3 -30 35 0 28 -4 35 -20 35 -16
0 -20 -7 -20 -35z"/>
<path d="M5940 350 c0 -6 37 -10 90 -10 53 0 90 4 90 10 0 6 -37 10 -90 10
-53 0 -90 -4 -90 -10z"/>
</g>
</svg>
